<svg width="200" height="200" viewBox="0 0 200 200" fill="none" xmlns="http://www.w3.org/2000/svg">
<rect x="2.5" y="2.5" width="195" height="195" rx="97.5" fill="#FFE358"/>
<rect x="2.5" y="2.5" width="195" height="195" rx="97.5" stroke="#96989A" stroke-width="5"/>
<path fill-rule="evenodd" clip-rule="evenodd" d="M65.1707 129.184C66.4437 126.876 67.3588 124.388 67.8848 121.805C71.6168 105.605 67.7152 70.2362 94.8568 69.7273C114.619 69.3032 137.096 96.3601 141.507 101.11C143.825 102.507 146.386 103.456 149.055 103.909C146.002 89.2354 147.189 100.516 137.605 88.5568C133.338 82.6993 128.415 77.3493 122.931 72.6111C93.3301 48.8622 61.6931 73.3745 62.202 110.185C62.3862 113.192 62.2154 116.209 61.6931 119.176C61.6931 120.957 60.5905 121.636 61.6931 123.841C62.7958 126.046 64.068 127.403 65.3403 129.184H65.1707ZM95.4506 103.739C94.6113 105.456 94.1751 107.341 94.1751 109.252C94.1751 111.163 94.6113 113.049 95.4506 114.765C98.4192 113.324 95.4506 111.542 96.5532 106.284C97.0621 104.248 102.321 101.704 100.964 116.547C99.1597 124.792 96.3093 132.773 92.4819 140.296L87.4777 149.879C89.3566 151.206 91.4122 152.262 93.5846 153.018C111.82 131.644 103.763 85.9275 95.0265 103.4L95.4506 103.739ZM78.4022 143.518L83.6609 147.759C88.1967 135.829 91.0513 123.326 92.1427 110.609C90.2767 89.0657 108.088 88.3024 110.209 110.609C110.209 112.984 110.209 115.274 110.209 117.48C110.236 122.006 109.809 126.524 108.937 130.966C107.748 137.47 105.664 143.778 102.745 149.71C101.767 151.799 100.633 153.813 99.3522 155.732C101.568 156.786 103.95 157.446 106.392 157.683C114.874 144.451 120.472 110.949 110.718 93.5611C109.684 91.932 108.256 90.5905 106.566 89.6609C104.875 88.7314 102.978 88.244 101.048 88.244C99.1194 88.244 97.2216 88.7314 95.5312 89.6609C93.8408 90.5905 92.4126 91.932 91.3793 93.5611C88.0757 100.064 86.087 107.154 85.5269 114.426C83.5761 129.693 83.152 145.723 78.4022 143.094V143.518ZM69.3267 134.273C70.8262 136.284 72.5318 138.131 74.4158 139.787C88.4955 120.703 78.1478 113.239 82.1342 98.0564C82.8275 95.1559 84.1999 92.4616 86.1383 90.1953C88.0767 87.929 90.5257 86.1555 93.2836 85.0208C96.0416 83.8862 99.0296 83.4228 102.002 83.6689C104.974 83.915 107.845 84.8636 110.378 86.4364C114.006 88.7337 117.241 91.5973 119.963 94.9182C125.73 102.467 142.44 122.314 149.988 109.083C148.966 108.739 147.916 108.483 146.85 108.319C143.587 107.664 140.442 106.52 137.52 104.927C125.9 99.7528 121.574 79.9902 102.406 76.852C63.6439 73.2048 85.4421 121.466 69.4964 133.849L69.3267 134.273ZM125.815 156.071H127.342L128.869 155.393C130.043 154.885 131.177 154.29 132.261 153.611C138.114 150.134 133.279 147.081 136.757 140.126C138.368 136.818 141.337 139.193 144.051 139.363C145.537 137.801 146.691 135.954 147.444 133.934C144.071 131.854 140.453 130.201 136.672 129.015C129.293 129.524 131.074 146.741 125.815 156.326V156.071ZM50.0731 79.7358C59.1486 57.1743 89.4285 36.9029 111.651 49.5407C89.8526 31.2201 48.2073 46.6569 50.0731 79.651V79.7358ZM112.244 157.937H114.026C125.222 155.902 124.543 139.023 127.936 127.997C128.699 124.859 129.886 123.247 133.618 123.841C139.98 123.332 148.462 129.015 149.988 121.805C149.395 121.805 149.988 121.805 149.14 121.805L146.341 121.212C128.19 116.971 122.762 104.248 119.454 102.637C126.324 120.448 117.503 145.808 114.959 152.254C114.195 154.205 112.923 156.241 112.244 158.276V157.937ZM56.6889 113.917C54.7183 100.098 58.2513 86.0573 66.5277 74.8164C87.3081 41.7375 120.981 55.902 144.39 88.3872C141.544 81.2483 137.719 74.5399 133.025 68.4551C100.455 26.4703 34.3823 70.0666 56.6889 113.917Z" fill="#96989A"/>
</svg>
