<svg width="200" height="200" viewBox="0 0 200 200" fill="none" xmlns="http://www.w3.org/2000/svg">
<rect x="2.5" y="2.5" width="195" height="195" rx="97.5" fill="#A8CF45"/>
<rect x="2.5" y="2.5" width="195" height="195" rx="97.5" stroke="#F5F5C7" stroke-width="5"/>
<path fill-rule="evenodd" clip-rule="evenodd" d="M141.871 145.551L156.439 146.988H159.183H159.901C160.058 146.993 160.212 147.033 160.351 147.105C160.49 147.177 160.611 147.28 160.705 147.405C160.8 147.531 160.864 147.676 160.895 147.83C160.925 147.984 160.921 148.143 160.881 148.294C160.759 149.047 160.516 149.775 160.163 150.45C159.848 151.312 159.454 152.143 158.987 152.933C158.399 153.782 157.811 154.174 157.158 154.109L152.65 153.259L139.585 152.018C137.298 152.018 135.338 151.691 133.836 151.691H133.182C132.852 151.63 132.54 151.496 132.268 151.3C132.208 151.166 132.178 151.021 132.178 150.875C132.178 150.729 132.208 150.584 132.268 150.45C132.418 149.675 132.682 148.927 133.052 148.229C133.438 147.398 133.875 146.591 134.358 145.812C134.554 145.437 134.858 145.131 135.231 144.932C135.604 144.734 136.029 144.654 136.449 144.701H137.233C138.786 145.012 140.357 145.23 141.936 145.355L141.871 145.551ZM43.6835 55.5292C43.6835 55.5292 61.7139 122.817 38 156.003C53.2866 176.386 119.986 164.888 119.986 164.888L127.042 31.8806L43.6835 55.5292ZM70.9905 70.032C70.1726 73.1778 70.3279 76.4977 71.436 79.5535C72.544 82.6092 74.5526 85.2572 77.1965 87.1478C79.1815 88.334 81.4214 89.0284 83.7293 89.1729C86.4342 89.358 89.1481 88.9798 91.6993 88.0624C95.0508 86.9592 97.9735 84.8358 100.059 81.9894C102.143 79.1429 103.287 75.7159 103.328 72.1878C104.052 76.0275 103.452 79.9995 101.624 83.4533C99.7961 86.9071 96.8496 89.6378 93.2672 91.1981C90.3278 92.2992 87.1887 92.7668 84.0559 92.57C80.9506 92.4109 77.9276 91.5152 75.2367 89.9569C69.7492 86.6252 66.2216 74.9969 70.9905 70.032ZM81.4429 61.8007C82.8801 61.8007 83.7293 65.7856 83.3374 70.4239C82.9454 75.0622 81.3122 78.7205 79.8097 78.5899C78.3071 78.4592 77.5233 74.5395 77.9805 69.9013C78.4378 65.263 79.9403 61.67 81.4429 61.8007ZM94.1164 65.9816C95.4883 65.9816 96.4029 68.5294 96.1416 71.4039C95.8802 74.2782 94.5084 76.4994 93.1365 76.3688C91.7646 76.238 90.7847 73.821 91.0461 71.0771C91.3074 68.3335 92.6793 65.9816 94.1164 66.1122V65.9816ZM57.2063 64.9364C59.4912 76.0883 60.8893 87.4035 61.3873 98.7761L116.393 89.2383L120.901 45.73L57.2063 64.9364ZM95.1617 140.063L94.4431 139.214C93.2672 137.777 92.2872 136.666 91.438 135.752V135.425C91.249 135.205 91.1346 134.93 91.1114 134.641C91.1523 134.395 91.266 134.168 91.438 133.988L93.1365 133.269C93.8035 132.965 94.5057 132.746 95.227 132.616C95.5331 132.508 95.8644 132.494 96.1786 132.576C96.4928 132.657 96.7756 132.83 96.9908 133.073L97.4481 133.661C98.3627 135.033 98.9506 135.817 99.2774 136.209L99.604 136.666C99.7007 136.801 99.8283 136.911 99.9759 136.987C100.124 137.062 100.287 137.102 100.453 137.102C100.619 137.102 100.783 137.062 100.931 136.987C101.078 136.911 101.206 136.801 101.302 136.666L102.478 135.686C103.289 134.998 104.053 134.256 104.765 133.465L105.091 133.138C105.483 132.746 106.202 133.138 107.117 133.138L108.946 134.249C109.424 134.54 109.863 134.891 110.252 135.294C110.644 135.817 110.644 136.209 110.252 136.601L109.73 136.927L108.031 138.234L104.961 140.782C104.836 140.892 104.735 141.028 104.667 141.18C104.598 141.332 104.563 141.497 104.563 141.664C104.563 141.831 104.598 141.995 104.667 142.147C104.735 142.3 104.836 142.435 104.961 142.546L107.247 145.289L108.684 146.988C108.684 146.988 109.076 146.988 109.076 147.38C109.171 147.453 109.248 147.547 109.301 147.655C109.354 147.762 109.381 147.881 109.381 148C109.381 148.12 109.354 148.239 109.301 148.346C109.248 148.454 109.171 148.548 109.076 148.621C108.588 149.001 108.035 149.289 107.443 149.47C106.797 149.769 106.117 149.988 105.418 150.124C105.158 150.267 104.866 150.342 104.569 150.342C104.272 150.342 103.98 150.267 103.72 150.124L101.629 147.053L100.976 146.269C100.881 146.121 100.751 145.999 100.597 145.914C100.443 145.829 100.27 145.785 100.094 145.785C99.9181 145.785 99.7451 145.829 99.5908 145.914C99.4367 145.999 99.3064 146.121 99.2119 146.269C98.428 146.923 97.5134 147.772 96.4682 148.817C96.3331 148.986 96.1797 149.139 96.011 149.274C95.6841 149.499 95.2969 149.619 94.9004 149.619C94.5038 149.619 94.1165 149.499 93.7898 149.274C93.1215 148.971 92.4865 148.599 91.8953 148.164C91.3873 147.915 90.9239 147.584 90.5234 147.184C90.4562 146.949 90.4562 146.7 90.5234 146.465C90.5897 146.198 90.7526 145.966 90.9808 145.812L90.2621 145.616C91.242 144.963 92.4179 143.983 93.8551 142.807L95.031 141.827C95.1794 141.733 95.3016 141.602 95.3862 141.448C95.4709 141.294 95.5152 141.121 95.5152 140.945C95.5152 140.769 95.4709 140.596 95.3862 140.442C95.3016 140.288 95.1794 140.158 95.031 140.063H95.1617ZM98.8853 109.751L110.448 110.862H112.604H113.192C113.316 110.86 113.438 110.886 113.55 110.936C113.663 110.987 113.763 111.061 113.844 111.155C113.925 111.248 113.984 111.358 114.018 111.476C114.052 111.595 114.06 111.72 114.041 111.842C113.897 112.445 113.7 113.036 113.453 113.606C113.194 114.29 112.865 114.947 112.473 115.565C112.016 116.219 111.559 116.545 111.036 116.48L107.443 115.827L97.1868 114.847C95.3576 114.847 93.8551 114.847 92.6793 114.847H92.1566C92.0201 114.849 91.8846 114.821 91.7603 114.765C91.6358 114.708 91.5258 114.625 91.438 114.52C91.3949 114.417 91.3727 114.306 91.3727 114.193C91.3727 114.081 91.3949 113.97 91.438 113.867C91.5823 113.254 91.8018 112.662 92.0912 112.103C92.2966 111.471 92.5591 110.858 92.8752 110.274C93.0209 109.972 93.2556 109.723 93.5477 109.559C93.8399 109.396 94.1752 109.326 94.5084 109.359H95.1617C96.3916 109.621 97.6346 109.817 98.8853 109.947V109.751ZM67.4628 131.44C68.3746 131.544 69.2141 131.987 69.8146 132.681C70.3724 133.421 70.6287 134.345 70.5317 135.267C70.4348 136.188 69.9916 137.039 69.292 137.646C68.9389 137.934 68.5307 138.146 68.0924 138.269C67.6543 138.393 67.1954 138.425 66.7441 138.365C66.2409 138.383 65.7407 138.279 65.2859 138.063C64.831 137.847 64.435 137.525 64.1311 137.123C63.5567 136.429 63.2756 135.539 63.3471 134.641C63.384 134.176 63.5126 133.723 63.7256 133.308C63.9387 132.893 64.2319 132.525 64.5884 132.224C65.3319 131.647 66.2633 131.368 67.2014 131.44H67.4628ZM65.8949 147.772C66.3521 147.802 66.7977 147.928 67.2028 148.142C67.608 148.356 67.9637 148.653 68.2467 149.013C68.7007 149.545 68.9832 150.201 69.0571 150.896C69.131 151.591 68.9927 152.293 68.6604 152.908C68.3282 153.523 67.8175 154.023 67.1956 154.342C66.5737 154.661 65.8697 154.785 65.1763 154.697C64.2605 154.605 63.4165 154.16 62.8245 153.455C62.2462 152.738 61.9655 151.826 62.0405 150.908C62.0829 150.446 62.221 149.999 62.4459 149.594C62.6709 149.189 62.9778 148.835 63.3471 148.556C64.0612 147.971 64.9758 147.69 65.8949 147.772ZM62.5632 139.998L74.1262 141.108H76.3473H77.1965C77.7846 141.108 78.1112 141.5 78.0458 142.088C77.9013 142.692 77.7046 143.282 77.4579 143.852C77.2122 144.543 76.8831 145.201 76.478 145.812C76.0207 146.465 75.5633 146.792 75.0408 146.727L71.4478 146.073L61.2566 145.093C59.3622 145.093 57.8596 145.093 56.6837 145.093H55.8345C55.5614 145.083 55.3035 144.965 55.1158 144.767C55.0727 144.663 55.0505 144.552 55.0505 144.44C55.0505 144.328 55.0727 144.217 55.1158 144.113C55.2601 143.501 55.4796 142.909 55.7692 142.35C56.2264 141.5 56.553 140.847 56.8143 140.455C56.9671 140.159 57.2033 139.915 57.4936 139.753C57.784 139.59 58.1157 139.516 58.4475 139.541H59.1009C60.3256 139.829 61.5703 140.026 62.8245 140.128L62.5632 139.998ZM64.5884 119.681H63.4777C61.9545 119.601 60.4281 119.601 58.9048 119.681H58.3822C58.1502 119.766 57.8956 119.766 57.6636 119.681C57.6204 119.577 57.5983 119.466 57.5983 119.354C57.5983 119.242 57.6204 119.131 57.6636 119.028C57.8406 118.425 58.0588 117.836 58.3169 117.264C58.6317 116.593 58.9805 115.939 59.3622 115.304C59.5365 115.027 59.7772 114.799 60.0625 114.639C60.3477 114.479 60.6684 114.393 60.9954 114.389H61.6486L64.7843 114.912H65.3722C65.5383 114.952 65.7111 114.954 65.8778 114.916C66.0443 114.879 66.2001 114.803 66.3328 114.696C66.4655 114.588 66.5716 114.452 66.643 114.297C66.7143 114.142 66.749 113.972 66.7441 113.801V112.299C66.8096 111.233 66.8096 110.164 66.7441 109.098V108.641C66.7441 108.053 67.332 107.661 68.312 107.269L70.4025 106.811C70.9444 106.739 71.4937 106.739 72.0357 106.811C72.689 106.811 72.9503 107.203 72.885 107.791C72.9237 107.985 72.9237 108.185 72.885 108.379C72.885 108.379 72.885 109.294 72.885 110.535L72.493 114.52C72.464 114.681 72.4712 114.847 72.5139 115.005C72.5565 115.164 72.6337 115.31 72.7399 115.435C72.8461 115.56 72.9786 115.66 73.1279 115.728C73.2772 115.795 73.4396 115.829 73.6035 115.827L77.1312 116.219H79.2871H79.9403C80.062 116.215 80.183 116.239 80.2936 116.29C80.4042 116.341 80.5014 116.417 80.5774 116.512C80.6535 116.608 80.7064 116.719 80.7319 116.838C80.7574 116.957 80.7548 117.081 80.7242 117.199C80.6021 117.809 80.4045 118.401 80.1363 118.962C79.8627 119.641 79.535 120.296 79.1565 120.922C78.7644 121.575 78.2418 121.902 77.7846 121.837L74.1262 121.183H73.0809C72.2535 121.183 71.7961 121.575 71.709 122.359C71.6358 123.621 71.6358 124.886 71.709 126.148C71.7448 126.387 71.7448 126.629 71.709 126.867C71.709 127.52 71.1865 128.043 70.2065 128.37L68.0507 128.957H66.4175C66.1672 128.891 65.9406 128.755 65.7643 128.566C65.688 128.31 65.688 128.037 65.7643 127.782C65.7643 127.782 65.7643 127.455 65.7643 127.324C65.7643 126.083 66.1562 124.58 66.3522 122.751V121.249C66.3522 120.334 66.3522 119.877 65.2416 119.877L64.5884 119.681ZM142.982 131.701L157.55 133.073H160.293H161.012C161.731 133.073 162.057 133.596 161.992 134.38C161.869 135.124 161.65 135.849 161.338 136.535C160.993 137.375 160.578 138.183 160.097 138.953C159.509 139.867 158.921 140.259 158.268 140.194L153.761 139.345L140.695 138.103L134.946 137.711H134.293C133.979 137.663 133.684 137.527 133.444 137.319C133.325 137.215 133.233 137.083 133.176 136.935C133.119 136.787 133.099 136.628 133.117 136.47C133.304 135.696 133.589 134.95 133.966 134.249C134.322 133.415 134.737 132.607 135.208 131.832C135.413 131.461 135.717 131.155 136.086 130.948C136.455 130.74 136.875 130.639 137.298 130.656H138.147C139.679 130.979 141.228 131.219 142.785 131.375L142.982 131.701Z" fill="#F5F5C7"/>
</svg>
