<svg width="200" height="200" viewBox="0 0 200 200" fill="none" xmlns="http://www.w3.org/2000/svg">
<rect x="2.5" y="2.5" width="195" height="195" rx="97.5" fill="#0098DA" stroke="#91D8F7" stroke-width="5"/>
<path fill-rule="evenodd" clip-rule="evenodd" d="M70.6208 143.032C62.2918 144.498 53.7155 143.466 45.9723 140.065C38.229 136.665 31.6654 131.049 27.1085 123.925C22.5515 116.801 20.2052 108.488 20.3651 100.032C20.525 91.5769 23.1839 83.358 28.007 76.4113C32.83 69.4646 39.6013 64.1008 47.4675 60.9959C55.3338 57.891 63.943 57.1838 72.2104 58.9635C80.4779 60.7432 88.0338 64.9301 93.9256 70.9967C99.8176 77.0633 103.782 84.7382 105.32 93.054C106.348 98.6164 106.264 104.327 105.074 109.857C103.884 115.387 101.61 120.626 98.3838 125.273C95.1579 129.919 91.0437 133.881 86.2786 136.929C81.5133 139.977 76.1917 142.051 70.6208 143.032ZM68.9072 133.393C62.4478 134.557 55.7883 133.78 49.7702 131.161C43.7522 128.542 38.6454 124.197 35.0954 118.677C31.5454 113.156 29.7114 106.707 29.825 100.145C29.9387 93.5825 31.995 87.2011 35.7341 81.8068C39.4731 76.4126 44.7272 72.2476 50.8325 69.8383C56.9376 67.4289 63.62 66.8833 70.0352 68.2703C76.4506 69.6573 82.3106 72.9147 86.8754 77.631C91.44 82.3471 94.5042 88.3105 95.681 94.7676C97.2421 103.439 95.2998 112.375 90.2806 119.616C85.2614 126.858 77.5749 131.812 68.9072 133.393Z" fill="#91D8F7"/>
<path fill-rule="evenodd" clip-rule="evenodd" d="M81.0442 78.3462C86.1381 82.6358 89.5729 88.5707 90.7543 95.1244C91.7241 100.221 91.2543 105.487 89.3977 110.332L84.7569 108.619C86.4599 104.008 86.6876 98.982 85.4084 94.2366C84.1293 89.491 81.4066 85.2604 77.6172 82.1302L80.8301 78.3462H81.0442Z" fill="#91D8F7"/>
<path fill-rule="evenodd" clip-rule="evenodd" d="M107.033 116.829L111.245 119.042L106.89 127.467L102.678 125.254L107.033 116.829Z" fill="#91D8F7"/>
<path fill-rule="evenodd" clip-rule="evenodd" d="M108.461 81.9875L110.817 81.5592C111.098 81.5081 111.388 81.5142 111.667 81.5768C111.946 81.6395 112.21 81.7574 112.443 81.9238C112.676 82.0902 112.873 82.3017 113.023 82.5456C113.173 82.7896 113.272 83.0611 113.316 83.344L115.6 95.6956C115.651 95.9774 115.645 96.2664 115.583 96.5457C115.52 96.8251 115.402 97.0891 115.236 97.322C115.069 97.555 114.858 97.7523 114.614 97.902C114.37 98.052 114.098 98.1513 113.815 98.1945L111.459 98.6228C111.177 98.6848 110.884 98.6865 110.601 98.6283C110.317 98.5702 110.049 98.4532 109.814 98.2849C109.578 98.1168 109.381 97.9011 109.234 97.652C109.087 97.4027 108.994 97.1254 108.96 96.838L106.676 84.4864C106.572 83.9089 106.701 83.3137 107.036 82.8316C107.371 82.3497 107.883 82.0204 108.461 81.9161V81.9875Z" fill="#91D8F7"/>
<path fill-rule="evenodd" clip-rule="evenodd" d="M97.1797 69.3503L100.321 65.8519L93.2528 59.4976L90.1113 62.996L97.1797 69.3503Z" fill="#91D8F7"/>
<path fill-rule="evenodd" clip-rule="evenodd" d="M126.381 60.854L173.075 62.4961L173.003 66.2802L126.31 64.638L126.381 60.854Z" fill="#91D8F7"/>
<path fill-rule="evenodd" clip-rule="evenodd" d="M125.81 77.561L172.503 79.2031L172.36 82.9871L125.667 81.345L125.81 77.561Z" fill="#91D8F7"/>
<path fill-rule="evenodd" clip-rule="evenodd" d="M125.239 94.3391L171.932 95.9812L171.789 99.7652L125.096 98.1231L125.239 94.3391Z" fill="#91D8F7"/>
<path fill-rule="evenodd" clip-rule="evenodd" d="M124.667 111.117L171.361 112.688L171.218 116.544L124.524 114.901L124.667 111.117Z" fill="#91D8F7"/>
<path fill-rule="evenodd" clip-rule="evenodd" d="M124.096 127.824L170.789 129.466L170.647 133.25L123.953 131.608L124.096 127.824Z" fill="#91D8F7"/>
<path fill-rule="evenodd" clip-rule="evenodd" d="M53.1994 79.7742L62.8379 96.838C63.4091 96.7841 63.9848 96.866 64.5184 97.0769C65.0519 97.2878 65.528 97.6218 65.908 98.0518C66.4232 98.7154 66.7029 99.5318 66.7029 100.372C66.7029 101.212 66.4232 102.029 65.908 102.693L68.3354 107.119L65.7651 108.547L63.2663 104.12C62.6967 104.158 62.1256 104.069 61.5947 103.859C61.0639 103.649 60.5861 103.324 60.1962 102.907C59.6565 102.254 59.3611 101.433 59.3611 100.586C59.3611 99.7393 59.6565 98.9186 60.1962 98.2658L50.5576 81.2735C51.3976 80.7052 52.2808 80.2039 53.1994 79.7742ZM64.4087 102.335C64 102.712 63.4648 102.921 62.9093 102.921C62.3538 102.921 61.8186 102.712 61.4099 102.335C61.1061 102.038 60.8979 101.656 60.8117 101.239C60.7256 100.823 60.7655 100.39 60.9264 99.9961C61.0872 99.6022 61.3618 99.2652 61.7149 99.0279C62.068 98.7906 62.4839 98.6639 62.9093 98.6639C63.3347 98.6639 63.7506 98.7906 64.1037 99.0279C64.4568 99.2652 64.7314 99.6022 64.8922 99.9961C65.0531 100.39 65.093 100.823 65.0069 101.239C64.9207 101.656 64.7125 102.038 64.4087 102.335Z" fill="#91D8F7"/>
<path fill-rule="evenodd" clip-rule="evenodd" d="M61.2673 103.978C60.7873 103.713 60.372 103.345 60.051 102.901C59.73 102.456 59.5115 101.946 59.411 101.407C59.276 100.598 59.4128 99.7667 59.8003 99.0433C60.1878 98.32 60.8041 97.7454 61.5529 97.4094L62.4096 72.0635H65.6939L64.7657 97.4808C65.2457 97.7456 65.6611 98.1134 65.982 98.5577C66.303 99.0022 66.5216 99.5121 66.622 100.051C66.746 100.841 66.6113 101.65 66.2384 102.358C65.8652 103.066 65.2736 103.634 64.5515 103.978V108.976H61.3387V103.978H61.2673ZM63.4092 102.907C62.8427 102.99 62.2657 102.851 61.7998 102.518C61.3339 102.185 61.015 101.685 60.9102 101.122C60.8486 100.824 60.8508 100.517 60.9169 100.221C60.9831 99.924 61.1116 99.6448 61.294 99.4017C61.4763 99.1587 61.7083 98.9571 61.9745 98.8105C62.2408 98.664 62.535 98.5758 62.838 98.5516C63.1196 98.5008 63.4088 98.5067 63.6881 98.5694C63.9675 98.632 64.2315 98.75 64.4644 98.9164C64.6974 99.0828 64.8945 99.2942 65.0444 99.5382C65.1944 99.782 65.2937 100.054 65.3369 100.337C65.3886 100.613 65.3852 100.897 65.327 101.173C65.2687 101.448 65.1569 101.709 64.9979 101.941C64.8387 102.173 64.6355 102.371 64.3996 102.525C64.1638 102.679 63.9 102.784 63.6233 102.835L63.4092 102.907Z" fill="#91D8F7"/>
<path fill-rule="evenodd" clip-rule="evenodd" d="M61.2673 98.8371L60.7676 100.051L34.8506 87.9848L35.4218 86.8425L61.2673 98.8371Z" fill="#91D8F7"/>
<path fill-rule="evenodd" clip-rule="evenodd" d="M119.955 96.8381L132.021 93.0539L147.157 111.688C147.157 111.688 162.151 60.1401 180 54C168.069 77.8051 158.94 102.914 152.798 128.824L119.955 96.8381Z" fill="#91D8F7"/>
</svg>
