<svg width="200" height="200" viewBox="0 0 200 200" fill="none" xmlns="http://www.w3.org/2000/svg">
<rect x="2.5" y="2.5" width="195" height="195" rx="97.5" fill="url(#paint0_linear_86_779)" stroke="#FFE760" stroke-width="5"/>
<path fill-rule="evenodd" clip-rule="evenodd" d="M51.502 19.0322H61.4599C61.8217 19.8712 62.1795 20.7005 62.5333 21.5203L62.5347 21.5236L62.5347 21.5237C72.5438 44.7193 79.2601 60.2842 78.7897 70.3821C82.7436 69.5341 86.8504 69.0872 91.0635 69.0872C122.668 69.0872 148.288 94.232 148.288 125.25C148.288 156.267 122.668 181.412 91.0635 181.412C59.4592 181.412 33.8389 156.267 33.8389 125.25C33.8389 102.635 47.4584 83.1415 67.0867 74.2399C69.3798 70.8224 69.585 68.0531 68.4968 62.0502C67.3228 55.5743 51.502 19.0322 51.502 19.0322ZM91.0635 172.426C64.5159 172.426 42.9948 151.304 42.9948 125.25C42.9948 99.1948 64.5159 78.0732 91.0635 78.0732C108.548 78.0732 123.852 87.2352 132.264 100.934L125.01 103.723C117.836 92.1828 104.962 84.4885 90.2727 84.4885C88.2051 84.4885 86.1735 84.6409 84.1887 84.9351L91.9467 104.665L87.5509 106.385L87.5457 106.372L72.408 112.192L75.155 119.21L93.6323 112.107L93.6341 112.111L94.9497 111.596L101.851 129.227L101.745 129.269L102.762 131.914L83.106 139.471L85.824 146.415L105.341 138.912L106.171 141.071L106.223 141.051L113.063 158.32C123.905 151.066 131.034 138.783 131.034 124.851C131.034 120.651 130.386 116.601 129.184 112.793L136.551 109.96C138.224 114.755 139.132 119.898 139.132 125.25C139.132 151.304 117.611 172.426 91.0635 172.426ZM108.846 160.789C103.276 163.618 96.9627 165.214 90.2727 165.214C67.7611 165.214 49.5118 147.143 49.5118 124.851C49.5118 106.335 62.1025 90.7313 79.2684 85.9765L85.7702 101.998L66.2497 109.503L67.9437 113.909L68.0018 113.886L72.4976 125.372L76.8933 123.652L76.8755 123.606L92.2655 117.689L96.7573 129.166L76.986 136.767L78.68 141.173L78.6999 141.165L83.1197 152.457L83.5863 152.275L83.6058 152.326L102.69 144.988L108.846 160.789Z" fill="#FFE760"/>
<g clip-path="url(#clip0_86_779)">
<path fill-rule="evenodd" clip-rule="evenodd" d="M105.858 145.376L91.1437 167.861L88.2133 169.647L101.463 142.422L105.812 144.964L105.858 145.376ZM79.1562 102.975L63.4377 156.855L62.1456 152.723L74.2351 101.852L79.1562 102.975ZM75.4599 141.132L89.275 99.2463C90.5348 96.4997 94.085 89.0154 97.6812 81.0047C95.9188 80.1572 90.9027 90.4109 88.1544 95.7207C77.9437 100.502 81.5819 65.5832 83.7337 65.2404C93.9435 63.2747 96.9757 66.1713 95.9109 67.8535L95.0623 73.3699C98.1771 67.6024 97.206 61.6619 104.473 64.1934C104.385 66.2679 104.749 68.3368 105.542 70.2562C106.334 72.1757 107.534 73.8997 109.06 75.3084C110.585 76.7169 112.399 77.7767 114.375 78.4136C116.352 79.0506 118.443 79.2496 120.504 78.9969C130.908 78.7824 142.109 51.889 147.811 43.1234C148.601 41.7846 148.145 36.7256 148.855 35.6041C151.171 33.477 153.594 31.4684 156.113 29.5859C157.773 28.5678 159.925 29.1635 163.025 31.7396C172.213 39.3764 169.319 37.7159 162.059 48.4267L159.083 49.7994L117.689 117.578C108.355 136.861 101.737 146.771 97.7369 125.733L82.7137 150.13C68.7236 163.151 69.7894 158.654 75.975 141.075L75.4599 141.132ZM107.758 102.307L108.686 102.205L110.128 102.045L112.085 101.828L113.527 101.668C115.484 101.451 117.338 101.246 119.708 100.983C121.134 100.592 122.386 99.7282 123.258 98.5328C124.129 97.3374 124.569 95.8815 124.505 94.4035C124.496 93.7666 124.356 93.1384 124.094 92.5576C123.833 91.9768 123.455 91.4558 122.984 91.0267C121.734 90.2073 120.238 89.849 118.753 90.0136C117.267 90.1782 115.886 90.8555 114.846 91.9286C115.099 90.6797 114.955 89.3832 114.435 88.2201C114.05 87.5762 113.527 87.0254 112.904 86.6078C112.281 86.19 111.572 85.9155 110.83 85.8041C109.414 85.6601 107.989 85.9684 106.759 86.6847C105.529 87.4011 104.557 88.4886 103.984 89.7913C103.41 91.0942 103.264 92.5451 103.566 93.9361C103.868 95.3271 104.603 96.5867 105.665 97.5342C106.424 98.5604 107.04 99.6848 107.496 100.877C107.701 101.754 107.801 102.654 107.792 103.555C107.881 103.891 107.92 104.238 107.907 104.585L107.758 102.307ZM108.95 98.9428L109.568 98.8743C112.624 97.2844 116.126 98.7732 119.022 96.6796C124.437 92.8469 117.147 89.1708 113.175 92.8436C113.279 91.8704 113.17 90.8861 112.855 89.9593C111.631 87.3838 108.392 86.3872 106.778 88.7559C105.163 91.1246 108.733 95.1086 109.259 98.9086C109.259 98.9086 109.259 98.9086 109.339 99.6297L108.95 98.9428Z" fill="#201E1E"/>
<path fill-rule="evenodd" clip-rule="evenodd" d="M135.278 46.7048C136.198 51.5187 135.578 56.5001 133.506 60.9415C131.433 65.383 128.014 69.0586 123.734 71.4463C121.109 72.0644 118.355 71.8405 115.864 70.8066C113.372 69.7726 111.269 67.981 109.853 65.6853C108.286 61.3203 107.939 56.6104 108.85 52.0628C109.761 47.5153 111.895 43.3023 115.022 39.8775C116.647 38.4432 118.621 37.4623 120.745 37.0337C122.87 36.605 125.07 36.7438 127.124 37.436C129.177 38.1283 131.012 39.3495 132.444 40.9767C133.876 42.6038 134.853 44.5796 135.278 46.7048Z" fill="#201E1E"/>
</g>
<defs>
<linearGradient id="paint0_linear_86_779" x1="150.323" y1="43.2258" x2="32.2581" y2="167.742" gradientUnits="userSpaceOnUse">
<stop stop-color="#F89A33"/>
<stop offset="1" stop-color="#FFEE15"/>
</linearGradient>
<clipPath id="clip0_86_779">
<rect width="119.229" height="132.214" fill="white" transform="translate(49.7715 41.0605) rotate(-6.32377)"/>
</clipPath>
</defs>
</svg>
