<svg width="200" height="200" viewBox="0 0 200 200" fill="none" xmlns="http://www.w3.org/2000/svg">
<rect x="2.5" y="2.5" width="195" height="195" rx="97.5" fill="#EF5473"/>
<rect x="2.5" y="2.5" width="195" height="195" rx="97.5" stroke="#FCD3C2" stroke-width="5"/>
<path fill-rule="evenodd" clip-rule="evenodd" d="M136.718 148.305V151.397H141.429L142.755 153.605L144.522 151.323H145.184L146.583 153.679L147.614 151.25H150.779L152.104 153.605L152.914 151.25H155.638L163 157.654L136.792 158.538V162.145C136.8 164.23 136.025 166.241 134.621 167.781C133.217 169.323 131.285 170.279 129.209 170.465H124.939C123.618 170.485 122.311 170.195 121.123 169.62C119.934 169.044 118.896 168.2 118.092 167.151C114.541 169.566 110.43 171.028 106.153 171.401C101.875 171.773 97.5728 171.041 93.6584 169.276C89.7439 167.51 86.3478 164.77 83.7944 161.318C81.2411 157.866 79.616 153.816 79.0745 149.556H78.7065C76.9272 150.139 74.9928 150.022 73.297 149.228C71.6012 148.435 70.2711 147.026 69.5778 145.287L68.3263 141.826C67.7437 140.047 67.8611 138.113 68.6543 136.417C69.4475 134.721 70.8571 133.391 72.5961 132.698L75.0991 131.814L73.9948 128.502L53.3081 135.863C52.8973 136.016 52.4606 136.085 52.0229 136.067C51.5853 136.05 51.1554 135.945 50.7584 135.76C50.3612 135.576 50.0048 135.314 49.7095 134.99C49.4142 134.667 49.1861 134.288 49.0381 133.876L37.1856 102.735C37.0371 102.305 36.9767 101.85 37.008 101.396C37.0393 100.942 37.1617 100.5 37.3678 100.094C37.5739 99.6891 37.8596 99.3293 38.2077 99.0368C38.5559 98.7442 38.9594 98.5247 39.3941 98.3915L77.8966 84.3303C77.1605 82.269 76.3507 80.0605 75.6145 77.8518C71.7863 67.1036 65.4551 53.2633 70.093 42.0733C72.7901 36.4292 77.5962 32.0705 83.4759 29.9361C89.3559 27.8017 95.8388 28.0626 101.528 30.6624C112.571 36.4046 116.915 50.5394 120.964 61.6558L112.939 64.5269C109.921 56.208 105.577 42.4413 97.5528 38.1715C93.9495 36.7178 89.932 36.6674 86.2932 38.0302C82.6544 39.393 79.6586 42.0701 77.8966 45.5333C74.6574 53.4841 80.915 67.6189 83.6389 74.9808C84.3751 77.1893 85.1848 79.3979 85.9211 81.4592L87.8352 80.723C88.2459 80.5708 88.6827 80.5015 89.1203 80.5191C89.558 80.5368 89.9878 80.641 90.3849 80.8259C90.7819 81.0108 91.1385 81.2726 91.4338 81.5961C91.729 81.9195 91.9572 82.2985 92.1051 82.7107L103.442 114.072C103.726 114.912 103.669 115.83 103.284 116.628C102.898 117.426 102.215 118.042 101.381 118.342L79.2955 126.44L80.6206 130.047L83.4917 129.017C84.4789 128.65 85.5333 128.5 86.5837 128.575C87.3199 127.986 87.9824 127.324 88.7922 126.735C93.351 123.271 98.973 121.501 104.694 121.729C104.842 120.64 105.205 119.591 105.761 118.644C106.317 117.696 107.055 116.868 107.933 116.207L111.319 113.704C112.189 113.055 113.178 112.583 114.23 112.316C115.282 112.05 116.376 111.994 117.45 112.151C118.524 112.308 119.556 112.676 120.488 113.233C121.419 113.79 122.231 114.526 122.878 115.397L124.718 117.827L128.546 115.103L130.902 116.134V113.262H131.491L133.994 114.44L133.405 111.864L135.982 109.95L138.485 111.127L137.749 108.772L139.884 107.226L149.748 108.183L128.767 123.863L130.976 126.735C132.25 128.504 132.786 130.699 132.47 132.857C132.154 135.014 131.011 136.964 129.282 138.293L127.736 138.808C127.779 139.224 127.779 139.644 127.736 140.06C129.918 140 132.036 140.799 133.634 142.287C135.231 143.774 136.181 145.83 136.276 148.01L136.718 148.305ZM79.2218 143.078C79.4702 141.213 79.9398 139.384 80.6206 137.63C79.7825 137.944 79.1029 138.578 78.7305 139.392C78.358 140.206 78.3229 141.134 78.6329 141.974C78.7649 142.388 78.9917 142.766 79.2955 143.078H79.2218ZM83.1972 148.158L89.7492 146.17C91.4749 145.463 92.8678 144.127 93.6467 142.433C94.4256 140.738 94.5324 138.811 93.9455 137.041L92.694 133.655C92.3302 132.58 91.6964 131.617 90.8535 130.857H91.3689C95.3529 127.834 100.292 126.344 105.283 126.661C105.508 127.334 105.858 127.958 106.313 128.502L114.485 138.808C115.759 140.457 117.592 141.582 119.638 141.974C118.444 142.781 117.478 143.883 116.834 145.172C116.189 146.462 115.887 147.896 115.957 149.336L116.399 162.881C116.432 163.126 116.432 163.374 116.399 163.617C114.213 165.319 111.709 166.565 109.033 167.283C106.358 168.002 103.566 168.177 100.822 167.8C98.0779 167.422 95.4369 166.499 93.0549 165.087C90.6728 163.673 88.5976 161.797 86.9517 159.569C84.5069 156.354 83.072 152.484 82.8291 148.452L83.1972 148.158ZM84.596 138.808C84.6358 139.052 84.6358 139.3 84.596 139.544C84.8824 140.31 84.8754 141.155 84.5765 141.916C84.2774 142.677 83.7075 143.301 82.9763 143.667C83.3386 141.993 83.8816 140.364 84.596 138.808ZM115.663 124.452C117.694 125.557 119.574 126.918 121.258 128.502C121.377 127.486 121.115 126.463 120.522 125.63C119.961 124.919 119.177 124.415 118.296 124.202C117.415 123.988 116.488 124.077 115.663 124.452ZM128.031 153.532C127.433 155.669 126.568 157.722 125.454 159.642C126.41 159.497 127.278 159.003 127.89 158.256C128.502 157.507 128.815 156.559 128.767 155.594C128.712 154.853 128.458 154.14 128.031 153.532ZM113.307 128.281C115.241 129.242 117.006 130.51 118.534 132.035C117.754 132.324 116.901 132.351 116.104 132.112C115.307 131.873 114.609 131.381 114.117 130.71C113.571 130.02 113.284 129.16 113.307 128.281ZM124.056 151.839C123.537 154.026 122.667 156.114 121.479 158.022C121.04 157.393 120.785 156.654 120.743 155.887C120.727 154.929 121.051 153.998 121.657 153.256C122.264 152.515 123.114 152.013 124.056 151.839Z" fill="#FCD3C2"/>
</svg>
