<svg width="200" height="200" viewBox="0 0 200 200" fill="none" xmlns="http://www.w3.org/2000/svg">
<rect x="2.5" y="2.5" width="195" height="195" rx="97.5" fill="#AD3335"/>
<rect x="2.5" y="2.5" width="195" height="195" rx="97.5" stroke="#E3BDAE" stroke-width="5"/>
<path fill-rule="evenodd" clip-rule="evenodd" d="M12.5 83.3386L162.867 36.8684L187.5 116.586L37.133 163.132L12.5 83.3386ZM45.3692 83.3386L136.043 55.4566C136.809 57.9241 138.055 60.2162 139.708 62.2016C141.362 64.1872 143.391 65.8269 145.679 67.0271C147.967 68.2274 150.469 68.9645 153.043 69.1962C155.616 69.4279 158.21 69.1496 160.676 68.3775L168.232 92.3305C165.767 93.0886 163.477 94.3264 161.492 95.9726C159.507 97.6188 157.867 99.6411 156.667 101.923C155.466 104.205 154.728 106.702 154.495 109.27C154.263 111.838 154.54 114.427 155.311 116.888L64.6372 144.846C63.8782 142.38 62.641 140.088 60.996 138.1C59.3512 136.112 57.3308 134.468 55.0504 133.261C52.77 132.054 50.2743 131.308 47.7056 131.066C45.137 130.824 42.5458 131.09 40.0798 131.849L32.5237 107.972C37.5047 106.375 41.6513 102.873 44.0581 98.2289C46.465 93.5852 46.9363 88.1776 45.3692 83.1874V83.3386ZM109.218 129.884C115.094 128.067 120.299 124.55 124.178 119.778C128.057 115.005 130.435 109.191 131.013 103.068C131.591 96.9453 130.342 90.7886 127.425 85.3746C124.507 79.9608 120.051 75.5322 114.62 72.6481C109.188 69.7637 103.024 68.5529 96.9046 69.1682C90.7856 69.7837 84.9857 72.1976 80.2371 76.1055C75.4885 80.0136 72.0037 85.2405 70.2225 91.127C68.4414 97.0133 68.4435 103.295 70.2288 109.181C71.4267 113.098 73.3879 116.741 75.9996 119.897C78.6111 123.054 81.8215 125.662 85.4456 127.573C89.0699 129.483 93.0362 130.657 97.1162 131.028C101.196 131.399 105.309 130.959 109.218 129.733V129.884ZM108.463 127.542C113.855 125.917 118.644 122.73 122.225 118.385C125.807 114.039 128.02 108.729 128.585 103.127C129.151 97.5236 128.043 91.8788 125.401 86.9055C122.76 81.932 118.703 77.8531 113.745 75.1838C108.786 72.5147 103.148 71.3751 97.542 71.9089C91.936 72.4428 86.6139 74.6263 82.2484 78.1835C77.8828 81.7405 74.6695 86.5119 73.0143 91.8944C71.3592 97.2771 71.3364 103.029 72.949 108.425C75.1332 115.663 80.0981 121.74 86.7551 125.323C93.4121 128.907 101.219 129.705 108.463 127.542ZM92.8217 76.6892C97.4272 75.2599 102.353 75.2316 106.975 76.6074C111.597 77.9833 115.706 80.7014 118.779 84.4168C121.853 88.1322 123.754 92.6772 124.24 97.4748C124.726 102.272 123.775 107.106 121.509 111.363C119.242 115.619 115.762 119.106 111.51 121.38C107.258 123.655 102.426 124.615 97.6277 124.138C92.8292 123.662 88.2806 121.77 84.5592 118.703C80.838 115.636 78.1119 111.533 76.7271 106.914C74.9062 100.772 75.5733 94.16 78.5844 88.5053C81.5954 82.8507 86.7091 78.6068 92.8217 76.6892ZM97.8843 112.43C97.8325 112.283 97.8325 112.123 97.8843 111.976L97.2042 110.238C95.2453 110.29 93.3323 109.641 91.8088 108.408C90.2854 107.175 89.2513 105.44 88.8926 103.514C88.0613 100.491 87.9101 101.398 86.399 103.514C84.8877 105.629 84.5099 106.309 84.2076 106.007C78.2384 100.869 82.7719 96.5618 87.9101 96.4864C88.4391 96.4864 88.968 94.6729 89.7236 93.6906C89.137 93.2452 88.715 92.6178 88.5235 91.9066C88.3321 91.1956 88.3821 90.441 88.6658 89.7613C88.6658 89.7613 89.1192 89.7613 89.5726 89.7613L91.386 91.1214C93.1895 89.5993 95.3044 88.4903 97.582 87.8724C99.874 87.3892 102.242 87.3892 104.534 87.8724C104.794 87.15 105.097 86.4437 105.44 85.7566C105.44 85.7566 105.969 85.0766 106.12 85.3032C106.588 85.7234 106.938 86.2575 107.136 86.8535C107.335 87.4496 107.376 88.0871 107.254 88.7034C108.236 89.0813 109.37 89.8369 109.823 89.5347C112.997 87.1923 119.57 88.4768 118.286 96.4108C118.286 96.8641 117.152 96.4108 115.037 95.4285C112.921 94.4462 112.619 94.1439 113.299 96.7886C113.659 98.3708 113.613 100.019 113.163 101.578C112.714 103.137 111.877 104.557 110.73 105.705L111.41 107.669C113.677 108.198 108.765 113.11 105.592 112.581C103.551 115.074 96.5241 114.546 98.0354 112.581L97.8843 112.43ZM144.506 99.282H145.261C145.261 98.602 145.261 98.6776 145.261 97.9219C145.261 97.1665 145.715 97.9219 147.981 94.9751C148.554 94.3022 148.983 93.5196 149.243 92.6751C149.503 91.8305 149.588 90.942 149.493 90.0635C149.434 89.079 149.125 88.1256 148.597 87.2928C148.068 86.4601 147.336 85.7755 146.47 85.3032C144.794 84.6268 142.984 84.3424 141.181 84.4721L139.972 80.5428C141.181 80.5428 142.163 80.5428 143.146 80.5428C143.404 80.4665 143.644 80.3379 143.85 80.1648C144.057 79.9919 144.225 79.7784 144.346 79.5375C144.466 79.2965 144.536 79.0333 144.55 78.7643C144.565 78.4953 144.524 78.2262 144.43 77.9738C143.826 75.4047 140.954 76.2359 138.687 76.3869C138.687 76.3869 138.007 73.4401 136.798 74.8758C135.589 76.3115 136.798 76.0091 136.798 76.7648C136.798 77.5204 136.798 76.7648 136.345 77.2182C135.765 77.4557 135.229 77.7876 134.758 78.2005C133.928 78.8093 133.271 79.625 132.854 80.5665C132.436 81.5081 132.273 82.5426 132.38 83.5668C132.487 84.5911 132.861 85.5694 133.464 86.4045C134.066 87.2394 134.878 87.9018 135.816 88.3256C137.781 89.0057 140.35 88.3256 140.576 89.0813L141.861 93.1616C140.561 93.3857 139.232 93.3857 137.932 93.1616C137.593 93.15 137.256 93.223 136.952 93.3742C136.649 93.5254 136.388 93.7501 136.193 94.0276C135.998 94.3052 135.875 94.627 135.835 94.9639C135.796 95.301 135.841 95.6424 135.967 95.9574C136.723 98.602 140.576 97.9219 143.07 97.3931C143.75 98.3754 143.07 98.6776 144.279 99.282H144.506ZM139.292 84.1699V83.7921L138.536 81.3741V80.8451C138.15 81.0258 137.84 81.3372 137.66 81.7241C137.48 82.111 137.443 82.549 137.554 82.9608C137.554 84.0187 138.612 84.2453 139.519 84.2453L139.292 84.1699ZM143.75 92.4815C144.141 92.2437 144.441 91.8811 144.602 91.452C144.762 91.0231 144.773 90.5525 144.633 90.1164C144.494 89.6803 144.212 89.3037 143.832 89.0473C143.452 88.7911 142.998 88.67 142.541 88.7034L143.75 92.4815ZM59.4992 122.706H60.2547C60.2547 122.102 60.2547 122.102 60.2547 121.346C60.2547 120.59 60.7081 121.346 62.8995 118.399C63.4719 117.726 63.9013 116.944 64.161 116.099C64.4209 115.255 64.5058 114.366 64.4106 113.488C64.3812 112.505 64.0933 111.548 63.5758 110.712C63.0585 109.876 62.33 109.192 61.4638 108.727C59.7622 108.044 57.9272 107.76 56.0988 107.896L54.8899 103.967C56.1744 103.967 57.1567 103.967 58.1389 103.967C58.3974 103.89 58.6372 103.762 58.8437 103.589C59.0503 103.416 59.219 103.202 59.3394 102.961C59.46 102.72 59.5295 102.457 59.544 102.188C59.5585 101.919 59.5174 101.65 59.4236 101.398C58.7436 98.8288 55.8722 99.6599 53.681 99.8111C53.681 99.8111 53.0009 96.8641 51.7919 98.2998C50.583 99.7355 51.7919 99.4332 51.7919 100.189C51.7919 100.945 51.7919 100.189 51.4141 100.642C50.979 100.987 50.5971 101.395 50.2806 101.851C49.45 102.46 48.7933 103.276 48.3761 104.217C47.9589 105.159 47.7956 106.193 47.9027 107.218C48.0096 108.242 48.3832 109.22 48.9861 110.055C49.5888 110.89 50.3999 111.553 51.3384 111.976C53.3032 112.656 55.8722 112.354 56.0988 112.732L57.3079 116.812C56.0332 117.037 54.7289 117.037 53.4542 116.812C53.1152 116.801 52.7785 116.874 52.4749 117.025C52.1713 117.176 51.91 117.401 51.715 117.678C51.5199 117.956 51.3973 118.278 51.3579 118.615C51.3185 118.952 51.3638 119.293 51.4897 119.608C52.2453 122.253 56.0988 121.573 58.5924 121.044C59.2724 122.026 58.5924 122.328 59.7259 122.933L59.4992 122.706ZM54.3611 107.594V107.518L53.5298 104.874H53.3032C52.9199 105.055 52.6163 105.37 52.4493 105.76C52.2822 106.15 52.2635 106.587 52.3963 106.989C52.3963 108.047 53.4542 108.274 54.3611 108.274V107.594ZM58.7436 115.906C59.0133 115.655 59.21 115.335 59.3129 114.982C59.4156 114.628 59.4208 114.253 59.3279 113.897C59.235 113.541 59.0472 113.216 58.7847 112.958C58.5222 112.699 58.1946 112.517 57.8367 112.43L58.9702 116.208L58.7436 115.906ZM23.3053 88.0234L156.671 46.8425L176.846 112.43L43.4801 153.384L23.3053 88.0234Z" fill="#E3BDAE"/>
</svg>
