<svg width="220" height="244" viewBox="0 0 220 244" fill="none" xmlns="http://www.w3.org/2000/svg">
<path fill-rule="evenodd" clip-rule="evenodd" d="M92.6476 5.30537C179.461 9.80762 188.52 130.416 176.019 155.205H158.592L159.069 184.496C143.444 190.004 120.349 178.246 95.7197 162.885C104.089 180.471 137.087 209.391 156.262 193.342C160.34 217.813 156.527 212.251 165.108 241.224C165.108 241.224 66.0574 254.731 48.0483 209.444C44.3405 201.128 37.9843 182.537 33.0053 157.376C-8.94534 161.031 -10.5344 78.4012 26.1195 97.9992C24.0008 45.773 36.6071 2.44509 92.6476 5.30537ZM13.0893 127.555C2.60169 121.252 10.0702 104.567 20.5049 110.235C27.9733 114.314 34.3295 128.191 31.6282 139.261C26.0135 129.039 18.598 137.567 23.1533 149.167C18.0683 142.228 17.1679 135.819 20.7697 130.045C31.8929 136.03 27.7085 124.642 24.4245 119.081C23.4711 117.438 22.3588 116.008 21.0345 114.896C13.3542 108.54 9.6994 118.869 13.0893 127.555ZM116.589 64.8414C126.706 64.8414 134.863 77.077 134.863 92.12C134.863 107.216 126.706 119.398 116.589 119.398C106.525 119.398 98.3682 107.216 98.3682 92.12C98.3682 77.077 106.525 64.8414 116.589 64.8414ZM88.4625 63.5172C80.3057 13.7803 125.011 25.0624 126.865 45.9318C112.457 23.5793 87.5619 34.12 88.4625 63.5172Z" fill="white"/>
<path d="M112.562 109.07C118.676 109.07 123.632 101.671 123.632 92.5438C123.632 83.4168 118.676 76.0179 112.562 76.0179C106.449 76.0179 101.492 83.4168 101.492 92.5438C101.492 101.671 106.449 109.07 112.562 109.07Z" fill="white"/>
<path fill-rule="evenodd" clip-rule="evenodd" d="M176.812 73.2104C178.878 71.5683 181.314 70.6149 183.857 70.6149C192.014 70.6149 198.635 80.2551 198.635 92.12C198.635 103.614 192.491 112.936 184.757 113.625C185.287 120.776 185.392 127.555 185.075 133.594C184.545 144.081 182.744 152.663 180.096 157.906L178.454 161.19H174.799L163.412 161.137L163.782 184.443L163.835 188.733L160.497 189.899L160.922 192.388C162.404 201.287 162.881 206.372 163.253 210.556C163.887 217.389 164.259 221.521 169.608 239.583L169.82 240.377C190.902 236.987 204.885 228.512 206.209 209.444C214.896 189.793 235.765 96.5162 198.953 41.2706C189.842 33.5903 174.376 36.9273 167.066 50.0633C157.902 32.7428 144.766 17.541 126.545 8.37752C118.865 4.45787 110.231 1.70353 100.697 0.273395C144.395 -2.0572 172.945 10.7081 191.113 31.1008C183.01 30.2004 171.833 35.1793 167.119 50.1163C169.926 55.4131 172.362 60.8688 174.428 66.4304C175.275 68.708 176.07 70.9327 176.812 73.2104Z" fill="#E0E0E0"/>
<path fill-rule="evenodd" clip-rule="evenodd" d="M183.01 78.8246C187.618 78.8246 191.326 84.7571 191.326 92.1196C191.326 99.0052 188.043 104.673 183.911 105.362C182.905 97.363 181.263 88.9415 178.984 80.5196C180.15 79.4603 181.581 78.8246 183.01 78.8246Z" fill="#E0E0E0"/>
</svg>
