<svg width="200" height="200" viewBox="0 0 200 200" fill="none" xmlns="http://www.w3.org/2000/svg">
<circle cx="100" cy="100" r="97.5" fill="#A53692" stroke="#DFC3DE" stroke-width="5"/>
<path fill-rule="evenodd" clip-rule="evenodd" d="M98.2563 128.733V71.5297C94.5189 71.8183 90.8745 72.8387 87.5307 74.533C86.0331 75.3718 84.6203 76.3536 83.3118 77.4646C78.1409 81.3164 74.4231 86.8025 72.7616 93.0327C71.1004 99.2629 71.5928 105.872 74.1593 111.787C74.8686 113.318 75.6809 114.799 76.5905 116.22C78.9804 119.811 82.1513 122.814 85.8661 125.006C89.581 127.198 93.7434 128.521 98.0418 128.876L98.2563 128.733ZM61.8605 163.556C61.8605 163.556 69.0111 151.758 69.0111 150.9C69.0111 150.042 71.2991 146.967 71.4421 146.609L68.7964 144.893C67.2234 143.749 66.5083 143.106 65.1498 142.033C63.7912 140.961 61.5745 138.744 60.7165 137.814C59.8584 136.885 58.7144 135.669 57.6418 134.311C53.5466 129.257 50.3756 123.52 48.2747 117.364C46.7457 112.544 45.8563 107.543 45.629 102.491H26.1083C26.1808 106.14 26.5635 109.776 27.2524 113.36C29.9293 128.34 37.1721 142.126 47.9886 152.83C51.5459 156.382 55.4506 159.568 59.6439 162.34C60.073 162.34 61.074 163.342 61.503 163.485L61.8605 163.556ZM26.1083 98.2725H45.629C46.0801 84.5455 51.6987 71.4952 61.36 61.7337C63.5735 59.5373 65.965 57.5283 68.5104 55.7273L69.6546 54.5831C70.1421 54.3563 70.5988 54.0681 71.0132 53.7251C71.0132 53.7251 63.8626 41.9268 63.8626 40.9973C63.8626 40.0678 61.8605 37.4221 61.217 37.1361C58.7432 38.6457 56.356 40.2929 54.0666 42.0698C51.7919 43.7253 49.6192 45.5163 47.5596 47.4327C35.4548 59.4575 27.8768 75.2956 26.1083 92.2661C25.9639 94.17 25.9639 96.0823 26.1083 97.9864V98.2725ZM64.9352 34.9194C64.9352 35.2769 65.9363 36.6355 66.1508 37.0646L74.7314 51.7944L77.377 50.5074C78.235 50.0784 79.2362 49.7209 80.1657 49.3634C93.0612 44.3191 107.384 44.3191 120.28 49.3634L123.068 50.5788L125.786 51.866C126.215 51.2225 126.644 50.436 127.001 49.7923L130.648 43.4285C130.648 42.8564 135.367 35.3485 135.439 34.9194L131.792 33.1318C127.916 31.2321 123.87 29.7 119.708 28.5555C102.002 23.795 83.1627 25.7298 66.7943 33.9899L64.9352 34.9194ZM129.289 53.8682L131.863 55.6557C141.474 62.399 148.668 72.0486 152.385 83.185C153.835 87.9921 154.653 92.968 154.816 97.9864H174.336C174.178 90.9881 172.997 84.0505 170.833 77.3931C168.944 71.6271 166.376 66.1064 163.182 60.9471C160.192 56.0656 156.666 51.5328 152.671 47.4327C149.632 44.4052 146.33 41.6534 142.804 39.2097C141.644 38.3395 140.426 37.5511 139.157 36.85C138.299 38.2801 137.584 39.6387 136.797 40.9973C136.011 42.3559 129.647 53.3677 129.647 53.7251L129.289 53.8682ZM129.289 146.824C129.289 146.824 138.942 163.556 139.014 163.699L140.801 162.555C149.8 156.595 157.409 148.766 163.111 139.602C168.983 130.076 172.626 119.344 173.765 108.212C174.06 106.344 174.179 104.453 174.123 102.563H154.816C154.459 105.709 154.816 106.924 153.958 110.428C151.598 123.298 144.696 134.894 134.509 143.106C132.507 144.75 131.434 145.394 129.432 146.824H129.289ZM64.9352 165.987C66.1508 166.559 67.2948 167.274 68.582 167.846L72.4432 169.491C75.1437 170.602 77.9145 171.534 80.7378 172.28C96.3632 176.464 112.925 175.46 127.931 169.419C129.218 168.847 130.505 168.347 131.792 167.703C133.079 167.06 134.438 166.488 135.439 165.844C135.081 165.129 131.077 158.336 130.576 157.407C129.075 154.832 127.073 151.543 125.714 148.969C125.357 148.969 123.497 150.042 123.068 150.256C120.318 151.504 117.472 152.532 114.559 153.331C102.176 156.753 88.981 155.69 77.3055 150.328C76.4211 149.876 75.5142 149.471 74.5884 149.112L67.5809 161.84C67.5809 162.483 65.3643 165.701 65.2212 166.059L64.9352 165.987ZM72.9437 118.794C72.9437 118.794 59.8584 126.088 57.9278 127.303L58.7858 128.519C59.5864 129.769 60.4703 130.963 61.4314 132.094C65.8807 137.528 71.4103 141.978 77.6698 145.163C83.9294 148.347 90.7823 150.196 97.794 150.593C104.806 150.989 111.823 149.925 118.402 147.467C124.981 145.009 130.977 141.21 136.011 136.313C138.448 133.906 140.651 131.272 142.589 128.447C142.887 128.041 143.15 127.611 143.376 127.16L127.788 118.151C126.726 119.645 125.58 121.077 124.355 122.441L123.068 123.728C121.282 125.446 119.288 126.935 117.134 128.161C111.641 131.38 105.324 132.914 98.9672 132.57C92.6104 132.227 86.4948 130.023 81.3813 126.231C78.6537 124.218 76.2433 121.808 74.2308 119.08C74.0821 118.79 73.889 118.525 73.6588 118.294L72.9437 118.794ZM55.2106 124.086C55.2106 124.086 67.6524 116.935 68.868 116.149C69.5445 115.826 70.1906 115.443 70.7986 115.004C70.0567 113.195 69.459 111.33 69.0111 109.427C67.5853 104.5 67.3343 99.3075 68.2781 94.2658C69.2218 89.2243 71.3341 84.4741 74.4454 80.3963C76.1016 78.3234 77.9709 76.4299 80.0227 74.7474C80.6662 74.1753 81.3813 73.7464 82.0962 73.1743C82.8113 72.6023 78.1636 66.0239 77.6631 65.3803C77.1624 64.7368 76.1614 62.8062 75.3749 61.7337L74.2308 59.803C73.8311 59.1838 73.4729 58.5388 73.1582 57.8724C70.6236 59.3683 68.2303 61.0915 66.0078 63.0207L64.5062 64.3793C63.8626 65.0944 63.6482 65.1658 63.0047 65.9524C62.1492 66.8914 61.338 67.8697 60.5735 68.884C54.9436 75.9441 51.3105 84.3851 50.0528 93.3271C48.7951 102.269 49.959 111.385 53.4231 119.724C53.995 121.154 54.7101 122.441 55.3536 123.799L55.2106 124.086ZM76.6619 55.6557C76.6619 55.6557 78.5926 59.0164 78.8787 59.5885L84.742 68.884C85.0371 69.5749 85.4218 70.2239 85.8861 70.8147L88.9608 69.5276C90.0333 69.0987 91.1773 68.8126 92.3215 68.455C99.2763 66.7346 106.601 67.3114 113.201 70.0996L114.774 70.8147C114.774 70.3141 115.56 69.4561 115.846 68.884C116.132 68.312 116.561 67.597 116.991 66.9535C117.419 66.3098 123.569 55.5127 123.712 55.1552C121.638 54.2256 120.923 53.7966 118.635 52.867C106.811 48.2907 93.7055 48.2907 81.8818 52.867L79.3076 53.9396C78.4496 54.2972 77.5915 54.8691 76.805 55.1552L76.6619 55.6557ZM118.349 73.3888L119.35 74.1753C120.781 75.2025 122.121 76.3508 123.354 77.6077C124.289 78.5359 125.172 79.5146 126 80.5393C130.99 87.0195 133.386 95.1262 132.722 103.278C132.527 105.405 132.144 107.511 131.577 109.57C131.577 110.5 131.005 111.429 130.648 112.359C130.22 113.22 129.838 114.103 129.504 115.004L145.092 123.943C145.835 122.633 146.48 121.271 147.022 119.867C150.596 111.199 151.693 101.71 150.191 92.4553C148.689 83.201 144.646 74.5457 138.513 67.454C137.145 65.848 135.664 64.3425 134.08 62.9492C131.976 61.0315 129.702 59.3083 127.287 57.8008C126.864 58.3941 126.482 59.0152 126.143 59.6599L125.07 61.5906L120.709 68.884C119.881 70.1427 119.14 71.4566 118.492 72.8169L118.349 73.3888ZM102.404 128.948C104.346 128.865 106.269 128.528 108.124 127.947C113.007 126.532 117.425 123.842 120.923 120.153L121.71 119.295C125.274 115.183 127.591 110.139 128.389 104.756C129.187 99.3734 128.432 93.8745 126.215 88.9053C124.89 85.8333 123.025 83.024 120.709 80.6108C119.604 79.4451 118.409 78.3691 117.134 77.3931C114.37 75.3504 111.273 73.8021 107.981 72.8169C106.07 72.2638 104.103 71.928 102.118 71.8157V129.019L102.404 128.948Z" fill="#DFC3DE"/>
</svg>
