<svg width="200" height="200" viewBox="0 0 200 200" fill="none" xmlns="http://www.w3.org/2000/svg">
<rect x="2.5" y="2.5" width="195" height="195" rx="97.5" fill="#EC268F" stroke="#F7BCD6" stroke-width="5"/>
<g clip-path="url(#clip0_86_836)">
<path fill-rule="evenodd" clip-rule="evenodd" d="M121.653 123.419C121.653 123.419 114.912 122.576 115.218 131.079C115.524 139.582 101.429 139.352 106.868 116.678C108.621 109.39 111.191 102.323 114.529 95.6116C112.426 95.2299 110.427 94.4124 108.659 93.212C106.891 92.0115 105.394 90.4544 104.264 88.6409C102.579 83.5084 108.783 82.7424 111.924 86.879C112.702 87.6679 113.657 88.2602 114.709 88.6065C115.762 88.953 116.881 89.0434 117.976 88.8706C118.655 87.8553 119.397 86.8831 120.197 85.9597C117.779 84.7085 115.737 82.8352 114.283 80.533C112.829 78.2306 112.015 75.5822 111.924 72.8604C111.764 69.8076 112.495 66.7741 114.027 64.1286C115.559 61.483 117.826 59.3393 120.553 57.9581C123.281 56.577 126.35 56.0177 129.389 56.3483C132.429 56.6789 135.306 57.8852 137.673 59.8204C140.039 61.7558 141.793 64.3369 142.72 67.2498C143.647 70.1629 143.708 73.2826 142.896 76.2298C142.083 79.1768 140.432 81.8246 138.144 83.851C135.855 85.8776 133.026 87.1956 130.003 87.6449L130.386 88.7174C132.684 89.2536 140.804 90.7091 143.178 87.0322C145.553 83.3552 152.294 83.0488 150.839 88.2578C148.464 94.9989 134.829 98.2928 133.756 97.2204L132.913 96.3777C136.744 108.405 141.953 127.019 138.735 130.773C133.833 136.518 131.075 127.632 131.075 124.874C131.075 122.117 121.959 123.419 121.959 123.419H121.653ZM52.7097 64.9704L37.389 49.6497L35.7803 55.9312L52.7097 64.9704ZM42.2916 86.5726L22.3747 78.9122L23.4472 85.3469L42.2916 86.7258V86.5726ZM41.3724 110.626L20 111.469L23.6004 116.907L41.3724 110.626ZM50.1817 132.994L30.9543 142.34L36.3932 145.864L50.1817 132.994ZM67.2643 149.924L53.3991 166.546L59.8338 167.619L67.4942 150.307L67.2643 149.924ZM89.7092 158.886L83.5042 179.339L89.8623 177.731L89.7092 158.886ZM113.686 157.814L116.291 179.033L121.423 174.973L113.763 157.814H113.686ZM135.288 147.166L146.166 165.551L149.23 159.805L135.288 147.166ZM150.609 128.704L167.998 141.191L168.534 134.68L150.685 128.245L150.609 128.704ZM157.886 105.264L178.799 109.707L176.654 103.579L157.886 105.264ZM154.362 81.5168L175.352 77.2268L170.909 72.4009L154.362 81.5168ZM142.029 60.9103L159.418 48.5772L153.443 45.9727L142.029 61.2934V60.9103ZM122.342 47.0451L133.373 28.6603H127.245L122.342 47.0451ZM98.8249 42.2192L101.506 21L95.6076 23.6045L98.8249 42.2192ZM75.3077 47.275L69.2559 26.7453L64.8897 31.5713L75.3077 47.275ZM83.5808 89.9431C84.6695 90.031 85.7635 89.8618 86.7747 89.4494C87.786 89.0369 88.6861 88.3926 89.4028 87.5684C92.237 83.202 98.5185 83.585 97.063 88.7941C96.106 90.6377 94.784 92.2676 93.1774 93.5846C91.5707 94.9013 89.7131 95.8778 87.7174 96.4544C91.4577 102.934 94.4395 109.822 96.6034 116.984C103.498 139.276 89.4793 139.965 88.9431 131.845C88.4068 123.725 81.9721 124.721 81.9721 124.721C81.9721 124.721 73.6223 123.955 73.6223 126.713C73.6223 129.47 71.2477 138.663 65.962 133.147C62.5149 129.547 66.4982 110.703 69.5625 98.5227L68.7964 99.3653C67.7239 100.514 53.8587 98.063 51.101 91.705C49.4158 86.6491 55.6206 85.883 58.7613 90.0197C61.9021 94.1563 69.4093 91.4751 71.7073 90.7857V89.7132C68.0892 89.431 64.6888 87.8737 62.1117 85.3186C59.5346 82.7635 57.9482 79.3764 57.635 75.7609C57.3218 72.1453 58.3024 68.536 60.4017 65.5758C62.5012 62.6157 65.5834 60.4969 69.0989 59.5969C72.6147 58.697 76.3357 59.0741 79.5994 60.6613C82.8629 62.2485 85.4571 64.9428 86.9198 68.264C88.3824 71.5852 88.6186 75.3179 87.5864 78.7971C86.554 82.2762 84.3202 85.276 81.2827 87.262C81.8189 87.7981 82.6616 88.7174 83.734 90.0197L83.5808 89.9431Z" fill="#F7BCD6"/>
</g>
<defs>
<clipPath id="clip0_86_836">
<rect width="160" height="158.416" fill="white" transform="translate(20 21)"/>
</clipPath>
</defs>
</svg>
