<svg width="200" height="200" viewBox="0 0 200 200" fill="none" xmlns="http://www.w3.org/2000/svg">
<rect x="2.5" y="2.5" width="195" height="195" rx="97.5" fill="#3E4095"/>
<rect x="2.5" y="2.5" width="195" height="195" rx="97.5" stroke="#C3BFDF" stroke-width="5"/>
<path fill-rule="evenodd" clip-rule="evenodd" d="M116.399 154.808C75.2764 158.372 34.8387 149.668 25.7917 135.481C19.4861 125.611 30.2467 115.604 51.4251 109.299C51.4251 108.682 51.4251 108.065 51.9048 107.38C54.2461 95.5995 59.4214 84.5668 66.9832 75.2353C64.5242 73.88 62.4678 71.8979 61.0232 69.4902C59.5786 67.0825 58.7972 64.3353 58.7586 61.5276C58.7586 57.2014 60.4773 53.0524 63.5363 49.9932C66.5954 46.9341 70.7446 45.2155 75.0707 45.2155C79.397 45.2155 83.546 46.9341 86.6053 49.9932C89.6643 53.0524 91.3829 57.2014 91.3829 61.5276C91.3177 65.4806 89.801 69.2713 87.1217 72.1782C84.4422 75.0852 80.7872 76.905 76.8528 77.2915C76.8528 77.2915 86.6538 86.6812 93.5076 85.1735H94.2615C94.6318 84.2883 95.2555 83.5323 96.0544 83.0005C96.8531 82.4688 97.7912 82.1851 98.7508 82.1851C99.7103 82.1851 100.649 82.4688 101.447 83.0005C102.246 83.5323 102.87 84.2883 103.24 85.1735C104.038 85.107 104.841 85.107 105.639 85.1735C111.67 85.9273 119.004 78.3196 120.991 76.4005C117.218 75.8326 113.768 73.9428 111.257 71.0683C108.747 68.1938 107.339 64.5212 107.284 60.7052C107.284 56.3789 109.002 52.2299 112.062 49.1708C115.121 46.1117 119.27 44.3931 123.596 44.3931C127.922 44.3931 132.071 46.1117 135.13 49.1708C138.19 52.2299 139.908 56.3789 139.908 60.7052C139.904 63.4791 139.175 66.2036 137.792 68.6082C136.409 71.0128 134.421 73.014 132.026 74.4129C139.893 83.6286 145.355 94.6484 147.927 106.489C147.927 107.174 148.27 107.791 148.475 108.408C161.086 111.903 170.408 116.838 174.177 122.801C183.293 136.988 157.317 151.381 116.399 154.946V154.808ZM76.8528 77.2915H76.1674V77.7712L76.6472 77.2229L76.8528 77.2915ZM80.0055 89.834C81.2392 94.0148 82.5415 98.8125 83.5696 103.542C94.3515 102.608 105.189 102.494 115.988 103.199C116.948 98.4013 118.181 93.3979 119.347 89.0116C113.851 91.4834 107.895 92.768 101.869 92.7812C101.054 93.6059 99.9449 94.0741 98.7851 94.0834C98.1228 94.1255 97.4589 94.0317 96.8343 93.8078C96.2095 93.5839 95.6373 93.2344 95.1525 92.7812C89.9983 92.6517 84.8926 91.7508 80.0055 90.1081V89.834ZM122.705 77.0859H122.294H122.636H122.705ZM132.849 114.097C134.062 113.902 135.306 114.088 136.411 114.627C137.515 115.167 138.425 116.035 139.017 117.112C133.875 116.532 128.695 116.372 123.527 116.633C123.527 116.633 123.527 116.153 123.527 115.947C123.527 113 132.78 114.097 132.78 114.097H132.849ZM139.702 118.826C139.897 119.728 140.011 120.645 140.045 121.567C140.045 127.736 147.31 129.175 149.298 121.567C150.886 122.204 152.297 123.215 153.41 124.514C156.563 128.969 147.516 133.561 133.26 134.658C124.001 135.679 114.63 134.602 105.845 131.505C106.211 131.196 106.512 130.817 106.731 130.391C106.95 129.964 107.082 129.499 107.121 129.021C107.159 128.543 107.102 128.062 106.954 127.606C106.805 127.151 106.568 126.729 106.256 126.365C105.29 125.24 104.099 124.329 102.76 123.692C106.205 121.293 110.179 119.764 114.343 119.237C114.382 120.407 114.79 121.534 115.508 122.458C119.758 127.119 122.362 121.841 123.253 118.14C128.722 117.8 134.212 118.029 139.634 118.826H139.702ZM149.64 119.237C149.81 117.551 149.81 115.851 149.64 114.165C155.047 115.887 159.819 119.18 163.348 123.623C171.025 135.686 148.955 147.955 114.138 151.039C79.3887 154.055 44.7769 146.652 37.1005 134.59C32.6455 127.736 38.1971 120.539 50.8082 115.262C50.545 117.716 50.7074 120.197 51.2879 122.595C44.4341 124.926 41.487 128.147 43.8173 131.3C47.6555 136.577 64.9272 139.73 82.1987 138.154C89.8428 137.939 97.3491 136.069 104.2 132.67C114.092 135.672 124.479 136.697 134.768 135.686C151.491 134.315 162.183 128.832 158.413 123.761C156.213 121.354 153.312 119.7 150.12 119.031L149.64 119.237ZM115.371 107.106C114.71 110.562 114.366 114.073 114.343 117.592C109.214 118.197 104.254 119.803 99.7446 122.321C95.303 120.844 90.7014 119.901 86.0369 119.511C86.1836 115.434 85.7918 111.355 84.8718 107.38H86.4482C96.1862 106.559 105.976 106.559 115.714 107.38L115.371 107.106ZM67.3944 114.782C66.5845 114.657 65.7573 114.7 64.9647 114.909C64.1721 115.118 63.431 115.488 62.788 115.996C62.1448 116.504 61.6132 117.139 61.2266 117.862C60.8398 118.585 60.6064 119.38 60.5407 120.196C62.9395 119.854 65.4753 119.511 68.217 119.305C70.9585 119.1 74.1798 119.305 77.0584 119.305C76.813 118.458 76.6748 117.583 76.6472 116.701C76.6472 113.822 67.326 115.056 67.326 115.056L67.3944 114.782ZM60.5407 121.636V122.184C60.5407 127.667 54.852 129.518 52.1104 124.309C48.4093 126.159 46.9015 128.421 48.5464 130.614C51.7677 135.069 66.5034 137.468 81.1708 136.646C88.1662 136.621 95.028 134.728 101.047 131.163C99.746 130.527 98.5998 129.615 97.6884 128.49C97.1678 127.77 96.9291 126.884 97.0176 126C97.1059 125.116 97.5153 124.295 98.1682 123.692C94.2072 122.159 90.0574 121.168 85.8313 120.745C85.7293 121.404 85.4444 122.021 85.0089 122.527C81.5134 126.502 78.9774 123.486 77.7438 120.196C75.0023 120.196 72.1921 120.196 69.3821 120.196C66.415 120.414 63.4628 120.803 60.5407 121.362V121.636ZM101.664 125.954L102.075 126.502C102.329 126.802 102.515 127.153 102.622 127.531C102.728 127.91 102.752 128.307 102.692 128.695L102.212 128.147C101.981 127.836 101.813 127.481 101.719 127.105C101.625 126.729 101.606 126.337 101.664 125.954Z" fill="#C3BFDF"/>
</svg>
