<svg width="200" height="200" viewBox="0 0 200 200" fill="none" xmlns="http://www.w3.org/2000/svg">
<rect x="2.5" y="2.5" width="195" height="195" rx="97.5" fill="#6E4D8B" stroke="#E0DBE9" stroke-width="5"/>
<path fill-rule="evenodd" clip-rule="evenodd" d="M157.574 99.2381C152.633 91.7683 147.156 84.6676 141.186 77.9924C139.026 75.7568 136.436 73.9809 133.572 72.7716C127.385 71.4188 121.047 70.8825 114.72 71.1764L73.0984 72.1916C72.5005 70.2547 72.5005 68.1825 73.0984 66.2457C74.9204 65.7902 76.8204 65.7427 78.6629 66.1062C80.5054 66.4696 82.245 67.2353 83.7576 68.3484H84.1927C85.9329 69.6537 86.0054 70.8139 86.803 70.6688L85.7153 61.5325C87.5281 59.2122 86.948 56.8193 84.4102 56.0942C84.5551 53.9913 84.1202 47.6104 83.7576 46.1602C83.1512 47.574 82.4233 48.9327 81.5822 50.2208C77.3766 55.5141 73.8961 55.3691 68.4577 56.3842C68.0009 56.4199 67.559 56.5634 67.1682 56.8029C66.7775 57.0424 66.4492 57.371 66.2099 57.7619C65.8785 58.7252 65.8785 59.7716 66.2099 60.7348C66.2505 62.379 66.5946 64.0015 67.2251 65.5206C67.3111 65.9887 67.5389 66.419 67.8776 66.7533C68.6028 66.7533 68.8203 66.7533 69.4004 67.2609C69.8969 68.175 70.1702 69.1937 70.198 70.2338V72.1191L42.6439 72.7716C41.3266 75.0253 40.3723 77.4722 39.816 80.0228C40.6861 80.0228 42.4989 80.0228 42.4264 80.6754C41.8463 83.7933 36.8431 105.184 37.2781 105.474H34.2327C34.3033 113.674 34.9088 121.861 36.0455 129.983H35.3929C35.4168 130.2 35.4168 130.418 35.3929 130.635C34.5227 132.013 33 132.013 33 133.463V134.043V137.161C33 138.176 33.5801 138.611 34.2327 138.467L40.6861 138.104L50.3301 137.524C50.7161 133.406 52.6248 129.581 55.6826 126.797C58.7403 124.012 62.727 122.469 66.8626 122.469C70.9981 122.469 74.9849 124.012 78.0426 126.797C81.1004 129.581 83.0089 133.406 83.395 137.524L120.013 137.016C120.037 132.774 121.691 128.702 124.633 125.646C127.576 122.589 131.58 120.78 135.819 120.593C140.058 120.407 144.206 121.857 147.405 124.645C150.604 127.432 152.609 131.342 153.005 135.566H156.631L165.55 134.841C164.462 131.941 165.55 129.693 166.855 129.62V123.457C166.855 121.572 164.607 121.426 162.722 121.281H162.069C164.317 120.556 164.39 115.843 163.955 112.435C162.886 109.131 161.425 105.966 159.604 103.009L157.574 99.5281V99.2381ZM105.511 123.892H107.614C107.034 125.464 106.03 126.844 104.713 127.88C103.067 129.003 101.123 129.609 99.1298 129.62C97.2171 129.695 95.3177 129.27 93.619 128.387C92.0116 127.506 90.7568 126.098 90.066 124.399C89.2446 122.599 88.8005 120.649 88.7609 118.671C88.7318 116.489 89.1257 114.322 89.921 112.29C90.5987 110.494 91.7824 108.932 93.3289 107.794C94.8213 106.763 96.5906 106.207 98.4047 106.199C99.9335 106.093 101.457 106.474 102.755 107.287C104.1 108.046 105.167 109.215 105.801 110.622C106.459 112.11 106.828 113.71 106.889 115.336C106.934 117.309 106.459 119.26 105.511 120.991C105.096 121.942 104.419 122.754 103.558 123.332C102.697 123.91 101.689 124.23 100.653 124.254C100.257 124.412 99.8157 124.412 99.4199 124.254C99.1504 123.976 98.9733 123.622 98.9123 123.239C98.602 123.649 98.2095 123.99 97.76 124.239C97.3106 124.489 96.814 124.642 96.302 124.689C95.7758 124.699 95.2554 124.578 94.7874 124.338C94.3193 124.097 93.918 123.745 93.619 123.312C92.7898 122.292 92.3755 120.998 92.4589 119.686C92.3864 117.852 92.7858 116.029 93.619 114.393C93.916 113.579 94.4453 112.87 95.1414 112.355C95.8375 111.839 96.6697 111.539 97.5346 111.492C98.0702 111.465 98.6013 111.604 99.0554 111.889C99.5094 112.175 99.8646 112.593 100.072 113.088V111.71H102.61L101.885 120.049C101.885 120.556 101.885 120.919 101.885 121.064C101.842 121.23 101.842 121.405 101.885 121.572C101.885 121.572 102.538 121.572 103.045 120.846C103.735 120.124 104.255 119.257 104.568 118.308C105.083 117.34 105.403 116.281 105.511 115.191C105.504 113.359 104.805 111.597 103.553 110.26C102.943 109.593 102.187 109.076 101.344 108.749C100.502 108.422 99.595 108.294 98.6948 108.375C97.1187 108.329 95.5774 108.842 94.3441 109.825C93.0491 110.773 92.1055 112.125 91.6613 113.668C91.069 115.292 90.7981 117.016 90.8636 118.744C90.8352 120.357 91.209 121.952 91.9513 123.384C92.6154 124.674 93.6509 125.735 94.9242 126.43C96.2689 127.031 97.7296 127.328 99.2024 127.3C100.584 127.28 101.946 126.958 103.191 126.357C104.274 125.796 105.178 124.941 105.801 123.892H105.511ZM94.9242 119.106C94.9029 119.895 95.1039 120.674 95.5043 121.354C95.6296 121.571 95.809 121.752 96.025 121.879C96.2411 122.006 96.4864 122.075 96.7369 122.079C97.0015 122.142 97.277 122.142 97.5415 122.079C97.8059 122.016 98.0519 121.892 98.2597 121.717C98.5713 121.524 98.8225 121.247 98.9848 120.919C99.4113 120.256 99.7067 119.518 99.855 118.744C99.958 117.852 99.958 116.952 99.855 116.061C99.8976 115.338 99.6931 114.622 99.2749 114.03C99.1703 113.842 99.0249 113.679 98.8492 113.553C98.6736 113.428 98.4722 113.343 98.2597 113.305C97.6665 113.359 97.1188 113.646 96.7369 114.103C96.256 114.824 95.9347 115.64 95.7944 116.496C95.5816 117.351 95.4601 118.226 95.4318 119.106H94.9242ZM89.341 57.9794L98.2597 58.1245L98.6948 53.9913L89.0508 57.9794H89.341ZM88.6157 59.5022L95.8669 68.4936L96.6645 64.8679L88.6157 59.5022ZM88.6157 54.1364L95.0692 45L96.0119 48.6255L88.7609 54.3539L88.6157 54.1364ZM113.85 81.2555L87.0206 81.8355C86.2229 81.8355 85.7153 82.3431 85.5703 83.4308V97.933C85.5781 98.3256 85.7184 98.7041 85.9686 99.0068C86.2188 99.3097 86.5639 99.519 86.948 99.6007L114.14 98.948C114.508 98.8121 114.825 98.5642 115.046 98.2393C115.268 97.9142 115.381 97.5283 115.372 97.1353V82.6331C115.372 81.4729 114.647 80.9653 113.777 81.0378L113.85 81.2555ZM161.634 119.686L160.619 110.26H158.371C158.331 110.402 158.331 110.553 158.371 110.695L159.314 119.904L161.634 119.686ZM149.742 99.5281L122.406 100.108C121.681 100.108 121.173 99.4556 121.101 98.5131L118.78 82.1255C118.737 81.7432 118.84 81.3588 119.069 81.0494C119.297 80.74 119.635 80.5286 120.013 80.4578C125.302 80.1678 130.604 80.1678 135.893 80.4578C137.55 80.6604 139.087 81.4287 140.244 82.6331C144.209 87.2853 147.639 92.3689 150.467 97.7878C150.975 98.803 150.975 99.4556 149.742 99.5281ZM80.9296 83.4308V101.413C80.567 102.284 78.6093 102.791 74.9113 102.864L44.4567 103.951C43.224 103.951 42.7164 103.009 43.079 100.398C44.3117 95.1775 45.2543 90.1017 46.8496 85.2436C46.8496 84.0109 47.7196 83.7208 50.6927 83.4308C56.9285 83.4308 67.8051 82.6331 78.6818 82.198C80.2046 82.198 80.7846 82.7056 80.9296 83.4308Z" fill="#E0DBE9"/>
<path fill-rule="evenodd" clip-rule="evenodd" d="M66.6449 125.487C69.9793 125.65 73.1282 127.07 75.4571 129.462C77.786 131.854 79.1217 135.04 79.1953 138.377C79.2689 141.715 78.0748 144.957 75.8535 147.449C73.6323 149.941 70.5491 151.499 67.2249 151.808C65.421 151.976 63.6019 151.771 61.8808 151.205C60.1597 150.64 58.5735 149.726 57.2209 148.52C55.8685 147.315 54.7786 145.844 54.0194 144.199C53.2601 142.554 52.8477 140.77 52.8079 138.959C52.768 137.148 53.1014 135.348 53.7874 133.671C54.4735 131.994 55.4974 130.476 56.7955 129.213C58.0935 127.949 59.6379 126.966 61.3324 126.325C63.027 125.684 64.8353 125.399 66.6449 125.487ZM66.6449 133.1C67.7517 133.072 68.8422 133.373 69.7775 133.966C70.7128 134.558 71.4509 135.415 71.8978 136.429C72.3447 137.442 72.4803 138.565 72.2873 139.655C72.0942 140.745 71.5814 141.754 70.814 142.552C70.0466 143.35 69.0591 143.902 67.9772 144.138C66.8953 144.373 65.7677 144.282 64.7379 143.875C63.7081 143.468 62.8225 142.764 62.1938 141.853C61.5649 140.941 61.2213 139.864 61.2066 138.756C61.1873 138.027 61.3131 137.3 61.577 136.62C61.8407 135.939 62.2371 135.318 62.743 134.791C63.249 134.265 63.8544 133.845 64.5243 133.554C65.1942 133.264 65.915 133.11 66.6449 133.1Z" fill="#E0DBE9"/>
<path fill-rule="evenodd" clip-rule="evenodd" d="M136.4 123.892C139.012 123.821 141.586 124.526 143.797 125.92C146.007 127.313 147.754 129.331 148.816 131.718C149.879 134.105 150.209 136.754 149.764 139.329C149.32 141.904 148.121 144.288 146.32 146.181C144.518 148.074 142.196 149.39 139.646 149.961C137.097 150.533 134.435 150.335 131.998 149.392C129.561 148.449 127.459 146.804 125.958 144.666C124.457 142.527 123.624 139.991 123.566 137.379C123.488 133.891 124.794 130.514 127.199 127.986C129.605 125.459 132.913 123.987 136.4 123.892ZM136.4 131.143C137.133 131.123 137.863 131.249 138.548 131.512C139.233 131.775 139.859 132.17 140.391 132.675C140.923 133.18 141.35 133.785 141.649 134.455C141.947 135.125 142.11 135.848 142.129 136.581C142.157 137.685 141.857 138.772 141.268 139.706C140.678 140.639 139.825 141.377 138.816 141.826C137.807 142.274 136.688 142.414 135.6 142.227C134.512 142.039 133.504 141.534 132.703 140.773C131.902 140.013 131.345 139.033 131.101 137.956C130.858 136.879 130.939 135.754 131.335 134.723C131.73 133.692 132.423 132.802 133.324 132.165C134.226 131.527 135.296 131.172 136.4 131.143Z" fill="#E0DBE9"/>
</svg>
