<svg width="200" height="200" viewBox="0 0 200 200" fill="none" xmlns="http://www.w3.org/2000/svg">
<rect x="2.5" y="2.5" width="195" height="195" rx="97.5" fill="#145238" stroke="#D2E28B" stroke-width="5"/>
<g clip-path="url(#clip0_86_807)">
<path fill-rule="evenodd" clip-rule="evenodd" d="M44.586 162.143C52.7813 160.422 62.2059 156.57 57.3708 153.046C55.8135 151.817 50.4866 151.735 49.1754 144.851C49.0485 142.949 49.4379 141.048 50.3026 139.35C51.1672 137.652 52.4749 136.219 54.0873 135.203C55.6996 134.186 57.5567 133.625 59.4618 133.578C61.3671 133.531 63.2497 133.999 64.9104 134.934C66.5394 136.263 67.7199 138.062 68.2916 140.085C68.8633 142.108 68.7989 144.259 68.1066 146.244C65.7299 153.374 71.3847 149.686 75.4824 147.719C79.6279 146.097 83.5193 143.889 87.0378 141.163C83.7055 135.761 79.9802 130.611 75.8921 125.755C74.1712 122.723 75.8921 119.363 78.7605 120.265C81.629 121.166 83.186 123.133 86.9559 121.248C95.1512 116.659 86.9559 99.9401 78.7605 103.3C77.5449 103.941 76.5099 104.878 75.7509 106.023C74.992 107.169 74.5332 108.487 74.4169 109.857C73.4336 113.135 70.4833 113.708 69.09 109.365C68.0424 104.525 66.5894 99.7827 64.7464 95.1869C63.6811 93.1381 63.1894 92.8922 61.3045 93.3839C54.0927 95.1048 48.1099 101.579 44.9137 100.022C46.4222 98.6011 47.5111 96.7929 48.0618 94.7951C48.6123 92.7973 48.6034 90.6866 48.036 88.6934C47.4687 86.7004 46.3645 84.9014 44.8442 83.4933C43.3239 82.0849 41.4459 81.1215 39.4153 80.708C37.3845 80.2945 35.2794 80.4469 33.3295 81.1485C31.3796 81.8503 29.6599 83.0742 28.3583 84.6868C27.0567 86.2993 26.2232 88.2384 25.9487 90.2925C25.6743 92.3465 25.9695 94.4365 26.8021 96.3341C27.6817 98.1472 29.0396 99.6854 30.7294 100.783C32.4192 101.881 34.3767 102.496 36.3906 102.563C36.493 102.781 36.5461 103.018 36.5461 103.259C36.5461 103.5 36.493 103.738 36.3906 103.956C35.735 105.759 30.49 107.726 28.1953 108.791C25.9006 109.857 22.7045 111.578 20 113.217C20.6543 113.785 21.1843 114.483 21.5571 115.265C22.9479 118.336 23.9924 121.552 24.6713 124.854C25.0811 126.575 25.4909 128.214 25.9006 129.607C26.1357 130.381 26.558 131.085 27.1299 131.656H27.6217C28.3592 131.656 28.851 130.427 29.0149 129.853C29.0385 129.608 29.0385 129.361 29.0149 129.116C29.1849 127.719 29.7115 126.39 30.544 125.256C31.3765 124.122 32.4868 123.222 33.7682 122.641C35.1957 122.121 36.7491 122.054 38.2161 122.45C39.683 122.846 40.9917 123.686 41.9636 124.854C43.0739 126.027 44.0122 127.351 44.7499 128.788C45.4728 130.262 45.97 131.837 46.2251 133.459C46.6672 135.179 46.5386 136.996 45.8587 138.637C45.1788 140.277 43.9843 141.653 42.4553 142.556C41.4023 143.227 40.1798 143.584 38.9312 143.584C37.6827 143.584 36.46 143.227 35.4072 142.556L33.8501 141.9H33.3584C33.0871 142.021 32.8586 142.221 32.7028 142.474C32.468 142.783 32.3259 143.153 32.293 143.539C32.2206 144.258 32.3939 144.98 32.7847 145.588C35.735 150.751 41.7996 155.341 44.0123 161.159V161.897L44.586 162.143ZM119.082 38.2292C122.033 36.8698 125.398 36.7174 128.46 37.8044C131.523 38.8915 134.039 41.1319 135.472 44.0479C136.551 46.3202 136.901 48.8701 136.476 51.3491C136.05 53.8281 134.87 56.1153 133.096 57.898C136.292 59.3732 142.274 52.9809 149.486 51.2598C151.289 50.7681 151.863 51.2598 152.928 53.0628C154.734 57.6716 156.186 62.4113 157.272 67.2407C158.665 71.5843 161.615 71.0106 162.599 67.7325C162.837 66.3775 163.412 65.1043 164.271 64.0303C165.131 62.9561 166.246 62.1155 167.516 61.5859C175.301 58.2259 183.496 74.9443 175.711 79.5338C172.433 81.4186 170.384 79.5338 168.008 78.5504C165.631 77.5669 163.418 81.009 165.139 84.0412C168.996 88.7975 172.528 93.808 175.711 99.0386C172.175 101.783 168.254 103.992 164.074 105.595C159.976 107.562 154.403 111.25 156.698 104.12C157.403 102.136 157.473 99.982 156.901 97.9561C156.328 95.9302 155.141 94.132 153.502 92.8102C151.856 91.9055 149.999 91.4556 148.121 91.5069C146.243 91.5582 144.413 92.1087 142.819 93.102C141.225 94.0952 139.924 95.4953 139.051 97.158C138.177 98.8208 137.762 100.686 137.849 102.563C139.078 109.611 144.323 109.611 146.044 110.758C150.798 114.282 140.963 118.134 133.26 119.855V119.117C131.343 115.359 128.916 111.884 126.048 108.791C124.563 107.159 123.22 105.405 122.032 103.546C121.641 102.938 121.468 102.216 121.54 101.497C121.446 101.093 121.446 100.672 121.54 100.268C121.73 100.032 121.987 99.8606 122.278 99.7762C122.6 99.693 122.939 99.693 123.261 99.7762L124.818 100.432C125.868 101.113 127.092 101.475 128.342 101.475C129.593 101.475 130.817 101.113 131.866 100.432C133.357 99.4698 134.517 98.0746 135.191 96.4336C135.865 94.7927 136.02 92.9849 135.636 91.2531C135.344 89.6398 134.849 88.07 134.161 86.5817C133.423 85.1451 132.485 83.8205 131.375 82.6479C130.396 81.4896 129.087 80.6571 127.622 80.2619C126.158 79.8665 124.608 79.927 123.179 80.4352C121.913 81.0267 120.819 81.9319 120.002 83.0651C119.184 84.1982 118.67 85.5216 118.508 86.9095V87.6471C118.355 88.2384 118.043 88.7767 117.606 89.2043C117.447 89.2605 117.274 89.2605 117.115 89.2043H116.623C116.042 88.6074 115.62 87.875 115.394 87.0735C114.984 85.6802 114.574 84.0412 114.164 82.3202C113.157 79.1782 111.811 76.1554 110.149 73.3052C109.8 72.5299 109.298 71.8331 108.674 71.2564C111.328 69.6418 114.063 68.1648 116.869 66.8309C118.918 65.8475 124.081 63.7987 125.064 61.9957V61.5859C122.569 61.7653 120.077 61.1888 117.913 59.9316C115.75 58.6746 114.015 56.795 112.935 54.538C111.62 51.5439 111.526 48.1545 112.675 45.0925C113.823 42.0306 116.122 39.5383 119.082 38.1473V38.2292ZM75.0726 59.0454C78.0269 57.7073 81.3845 57.566 84.4408 58.651C87.497 59.7359 90.0141 61.9628 91.4633 64.864C92.5525 67.2132 92.8773 69.8448 92.3922 72.3881C91.907 74.9317 90.6362 77.2588 88.7588 79.0421C91.955 80.1893 97.8557 74.0428 105.149 72.3219C107.034 71.8302 107.526 72.3219 108.674 74.1249C110.464 78.7316 111.889 83.4723 112.935 88.3028C114.41 92.6464 117.361 91.9907 118.262 88.7945C118.378 87.4251 118.837 86.107 119.596 84.9613C120.355 83.8156 121.39 82.8792 122.606 82.2383C130.309 78.7962 138.996 95.5965 130.801 100.186C127.523 102.071 125.474 100.186 123.097 99.2026C120.721 98.2191 118.426 101.661 120.147 104.693C124.27 109.512 128.023 114.635 131.375 120.019C127.838 122.785 123.918 125.021 119.737 126.657C115.64 128.624 109.985 132.312 112.361 125.1C113.047 123.127 113.108 120.99 112.536 118.981C111.964 116.972 110.787 115.188 109.165 113.872C107.517 112.993 105.665 112.57 103.798 112.646C101.932 112.722 100.12 113.296 98.5498 114.306C96.9793 115.317 95.7071 116.729 94.8648 118.396C94.0223 120.063 93.6402 121.925 93.7579 123.789C94.9053 130.755 100.232 130.837 101.953 131.984C107.854 136.327 97.4458 139.524 89.0046 140.589C87.0715 136.816 84.6463 133.316 81.7928 130.181C80.1435 128.557 78.661 126.773 77.3673 124.854C76.9932 124.239 76.8214 123.523 76.8755 122.805C76.7813 122.401 76.7813 121.98 76.8755 121.576C77.0606 121.317 77.3169 121.118 77.6131 121.002C77.7557 120.941 77.909 120.91 78.064 120.91C78.2189 120.91 78.3723 120.941 78.5147 121.002L80.1538 121.658C81.2133 122.31 82.4332 122.656 83.6778 122.656C84.9221 122.656 86.1421 122.31 87.2017 121.658C88.7309 120.755 89.9254 119.379 90.6053 117.739C91.2852 116.098 91.4137 114.281 90.9715 112.561C90.6907 110.934 90.1658 109.359 89.4145 107.89C88.755 106.427 87.839 105.095 86.71 103.956C85.727 102.802 84.4223 101.967 82.9625 101.558C81.5025 101.149 79.954 101.185 78.5147 101.661C77.2377 102.26 76.1369 103.178 75.3185 104.326C74.5001 105.475 73.9921 106.815 73.8433 108.217C73.8316 108.463 73.8316 108.709 73.8433 108.955C73.6456 109.676 73.213 110.311 72.614 110.758H72.1223H71.6306C71.0302 110.209 70.6029 109.497 70.4012 108.709C69.9916 107.234 69.5818 105.595 69.09 103.956C68.4614 100.641 67.415 97.419 65.9757 94.3672C65.6481 93.5565 65.1442 92.8287 64.5006 92.2365C67.0412 90.6795 70.3193 89.0403 72.6961 87.8929C75.0726 86.7457 79.9898 84.8607 80.8914 83.0578C78.0396 83.1457 75.245 82.2456 72.9807 80.5098C70.7165 78.774 69.1214 76.3091 68.4659 73.5324C67.8102 70.7557 68.1342 67.8376 69.383 65.2723C70.6317 62.707 72.7285 60.6521 75.3185 59.4552L75.0726 59.0454Z" fill="#D2E28B"/>
</g>
<defs>
<clipPath id="clip0_86_807">
<rect width="160" height="125.149" fill="white" transform="translate(20 37)"/>
</clipPath>
</defs>
</svg>
