<svg width="200" height="200" viewBox="0 0 200 200" fill="none" xmlns="http://www.w3.org/2000/svg">
<rect x="2.5" y="2.5" width="195" height="195" rx="97.5" fill="#F58634" stroke="#FDC15B" stroke-width="5"/>
<g clip-path="url(#clip0_86_801)">
<path fill-rule="evenodd" clip-rule="evenodd" d="M76.877 81.5578L115.758 67.6404L128.927 70.3241L89.7334 86.0514L76.877 81.5578ZM131.049 71.8844L134.544 115.571L98.4709 134.856L91.6682 87.7988L131.049 71.8844Z" fill="#FFFBD6"/>
<path fill-rule="evenodd" clip-rule="evenodd" d="M74.9425 80.9337L113.699 67.2037L100.281 64.7073L62.835 76.7523L74.7552 80.8089L74.9425 80.9337ZM63.4591 78.6871L71.6972 118.629L95.7874 133.545L89.1095 87.7989L63.4591 78.6871Z" fill="#FFF8AF"/>
<path fill-rule="evenodd" clip-rule="evenodd" d="M90.6696 35.6864C103.385 33.8453 116.361 35.8157 127.957 41.3484C139.553 46.8811 149.248 55.7278 155.816 66.7698C162.385 77.8119 165.532 90.5537 164.859 103.384C164.187 116.215 159.726 128.558 152.039 138.853C144.353 149.148 133.786 156.933 121.676 161.224C109.565 165.515 96.4545 166.118 84.001 162.958C71.5476 159.798 60.3107 153.017 51.7108 143.471C43.111 133.926 37.5346 122.045 35.6864 109.33C34.4587 100.884 34.9072 92.279 37.0063 84.0062C39.1054 75.7335 42.8139 67.9554 47.9199 61.1165C53.026 54.2775 59.4296 48.5116 66.7647 44.1482C74.0998 39.7848 82.2228 36.9095 90.6696 35.6864ZM57.9668 74.0686L100.031 59.964L136.354 67.9525L140.41 117.88L97.4098 141.097C97.4098 141.097 67.4531 122.374 66.7666 121.75C66.0801 121.126 57.7796 74.3182 57.7796 74.3182L57.9668 74.0686Z" fill="#FDC15B"/>
</g>
<defs>
<clipPath id="clip0_86_801">
<rect width="130" height="130" fill="white" transform="translate(35 35)"/>
</clipPath>
</defs>
</svg>
